<?xml version="1.0" encoding="utf-8"?>
<!-- Generator: Adobe Illustrator 16.0.0, SVG Export Plug-In . SVG Version: 6.00 Build 0)  -->
<!DOCTYPE svg PUBLIC "-//W3C//DTD SVG 1.1//EN" "http://www.w3.org/Graphics/SVG/1.1/DTD/svg11.dtd">
<svg version="1.1" xmlns="http://www.w3.org/2000/svg" xmlns:xlink="http://www.w3.org/1999/xlink" x="0px" y="0px" width="24px"
	 height="24px" viewBox="0 0 24 24" enable-background="new 0 0 24 24" xml:space="preserve">
<g id="Layer_1">
	<g>
		<g>
			<path fill="#515F70" d="M14.793,2.5L18.5,6.207V17c0,0.276-0.224,0.5-0.5,0.5H8c-0.276,0-0.5-0.224-0.5-0.5V3
				c0-0.276,0.224-0.5,0.5-0.5H14.793 M15.414,1H8C6.897,1,6,1.898,6,3v14c0,1.103,0.897,2,2,2h10c1.103,0,2-0.897,2-2V5.586
				L15.414,1L15.414,1z"/>
		</g>
		<path fill="none" stroke="#515F70" stroke-width="1.5" stroke-linecap="round" stroke-miterlimit="10" d="M3.781,3.76v15.561
			c0,1.072,0.865,1.945,1.929,1.945h11.571"/>
	</g>
	<g>
		<polygon fill="#515F70" points="18.563,6.25 14.719,6.25 14.719,2.406 		"/>
	</g>
</g>
<g id="Layer_2">
</g>
</svg>
