<?xml version="1.0" encoding="utf-8"?>
<!-- Generator: Adobe Illustrator 16.0.0, SVG Export Plug-In . SVG Version: 6.00 Build 0)  -->
<!DOCTYPE svg PUBLIC "-//W3C//DTD SVG 1.1//EN" "http://www.w3.org/Graphics/SVG/1.1/DTD/svg11.dtd">
<svg version="1.1" xmlns="http://www.w3.org/2000/svg" xmlns:xlink="http://www.w3.org/1999/xlink" x="0px" y="0px" width="24px"
	 height="24px" viewBox="0 0 24 24" enable-background="new 0 0 24 24" xml:space="preserve">
<g id="Layer_1">
</g>
<g id="Layer_2">
	
		<line fill="none" stroke="#515F70" stroke-width="1.5" stroke-linecap="round" stroke-linejoin="round" stroke-miterlimit="10" x1="11.999" y1="12" x2="11.999" y2="3.042"/>
	
		<polyline fill="none" stroke="#515F70" stroke-width="1.5" stroke-linecap="round" stroke-linejoin="round" stroke-miterlimit="10" points="
		15.928,9.098 12.025,13 8.072,9.098 	"/>
	<g>
		<g>
			<g>
				
					<path fill="none" stroke="#515F70" stroke-width="1.5" stroke-linecap="round" stroke-linejoin="round" stroke-miterlimit="10" d="
					M18.779,15.127 M2.951,15.217v4.558c0,1.1,0.9,2,2,2h13.961c1.1,0,2-0.9,2-2v-4.648 M2.951,15.127v0.09 M5.084,15.127
					 M5.084,15.127"/>
			</g>
		</g>
	</g>
	<g>
		
			<path fill="none" stroke="#515F70" stroke-width="1.5" stroke-linecap="round" stroke-linejoin="round" stroke-miterlimit="10" d="
			M3.688,15.088H2.951 M3.823,15.088H3.688 M3.986,15.088H3.823 M20.646,15.088h-5.36l-1.739,1.739h-2.76l-1.738-1.739H3.986
			 M20.836,15.088h-0.189 M20.865,21.5 M20.865,21.5 M20.865,21.909 M20.865,22.046 M20.865,22.046 M2.375,15.088"/>
	</g>
</g>
</svg>
