<?xml version="1.0" encoding="utf-8"?>
<!-- Generator: Adobe Illustrator 16.0.0, SVG Export Plug-In . SVG Version: 6.00 Build 0)  -->
<!DOCTYPE svg PUBLIC "-//W3C//DTD SVG 1.1//EN" "http://www.w3.org/Graphics/SVG/1.1/DTD/svg11.dtd">
<svg version="1.1" xmlns="http://www.w3.org/2000/svg" xmlns:xlink="http://www.w3.org/1999/xlink" x="0px" y="0px" width="24px"
	 height="24px" viewBox="0 0 24 24" enable-background="new 0 0 24 24" xml:space="preserve">
<g id="Layer_1">
	<path fill="none" stroke="#515F70" stroke-width="1.5" stroke-linecap="round" stroke-linejoin="round" stroke-miterlimit="10" d="
		M11.025,12.631c-1.229-1.229-1.229-3.244,0-4.492l4.339-4.34c1.229-1.229,3.245-1.229,4.493,0l0.038,0.039
		c1.229,1.229,1.229,3.244,0,4.492l-3.72,3.755 M7.951,11.824l-3.845,3.845c-1.229,1.229-1.229,3.245,0,4.493L4.144,20.2
		c0.615,0.615,1.44,0.922,2.247,0.922c0.825,0.02,1.632-0.288,2.247-0.922l4.338-4.339c1.229-1.229,1.229-3.245,0-4.493"/>
</g>
<g id="Layer_2">
</g>
</svg>
