<?xml version="1.0" encoding="utf-8"?>
<!-- Generator: Adobe Illustrator 16.0.0, SVG Export Plug-In . SVG Version: 6.00 Build 0)  -->
<!DOCTYPE svg PUBLIC "-//W3C//DTD SVG 1.1//EN" "http://www.w3.org/Graphics/SVG/1.1/DTD/svg11.dtd">
<svg version="1.1" xmlns="http://www.w3.org/2000/svg" xmlns:xlink="http://www.w3.org/1999/xlink" x="0px" y="0px" width="24px"
	 height="24px" viewBox="0 0 24 24" enable-background="new 0 0 24 24" xml:space="preserve">
<g id="Layer_1">
	<g>
		<path fill="#1C81C3" d="M4.146,21.5c-1.1,0-1.412-0.682-0.694-1.515l2.493-2.893c0.718-0.833,1.99-0.931,2.827-0.216l1.187,1.013
			c0.837,0.714,2.044,0.565,2.682-0.331l6.619-9.289C19.896,7.374,20.6,6.81,20.82,7.017c0.222,0.207,0.383,1.276,0.359,2.376
			l-0.179,8.42c-0.023,1.1-0.061,2.379-0.081,2.843c-0.021,0.464-0.938,0.844-2.038,0.844H4.146z"/>
	</g>
	<g>
		<path fill="#515F70" d="M19.933,3.063c0.552,0,1,0.449,1,1v15.875c0,0.551-0.448,1-1,1H4.058c-0.552,0-1-0.449-1-1V4.063
			c0-0.551,0.448-1,1-1H19.933 M19.933,2.063H4.058c-1.1,0-2,0.9-2,2v15.875c0,1.1,0.9,2,2,2h15.875c1.1,0,2-0.9,2-2V4.063
			C21.933,2.962,21.032,2.063,19.933,2.063L19.933,2.063z"/>
	</g>
	<circle fill="#1C81C3" cx="9.41" cy="8.198" r="1.915"/>
	<g>
		<path fill="none" stroke="#515F70" stroke-linecap="round" stroke-miterlimit="10" d="M2.688,18.75l3.235-3.667
			c0.728-0.825,1.937-0.84,2.686-0.035l1.17,1.259c0.749,0.805,1.873,0.724,2.498-0.182l5.875-8.52
			c0.625-0.906,1.571-1.384,2.104-1.063s0.968,0.583,0.968,0.583"/>
	</g>
</g>
<g id="Layer_2">
</g>
</svg>
