<?xml version="1.0" encoding="utf-8"?>
<!-- Generator: Adobe Illustrator 16.0.0, SVG Export Plug-In . SVG Version: 6.00 Build 0)  -->
<!DOCTYPE svg PUBLIC "-//W3C//DTD SVG 1.1//EN" "http://www.w3.org/Graphics/SVG/1.1/DTD/svg11.dtd">
<svg version="1.1" xmlns="http://www.w3.org/2000/svg" xmlns:xlink="http://www.w3.org/1999/xlink" x="0px" y="0px" width="24px"
	 height="24px" viewBox="0 0 24 24" enable-background="new 0 0 24 24" xml:space="preserve">
<g id="Layer_1">
	<g>
		<path fill="#515F70" d="M19.875,3c0.551,0,1,0.449,1,1v15.875c0,0.551-0.449,1-1,1H4c-0.551,0-1-0.449-1-1V4c0-0.551,0.449-1,1-1
			H19.875 M19.875,2H4C2.9,2,2,2.9,2,4v15.875c0,1.1,0.9,2,2,2h15.875c1.1,0,2-0.9,2-2V4C21.875,2.9,20.975,2,19.875,2L19.875,2z"/>
	</g>
	<g>
		<path fill="#1C81C3" d="M8.871,16.708c-0.387,0-0.428-0.5-0.428-0.714V7.882c0-0.215,0.042-0.714,0.428-0.714
			c0.104,0,0.279,0.031,0.523,0.179l6.568,3.982c0.295,0.179,0.465,0.401,0.465,0.609s-0.169,0.43-0.464,0.609l-6.569,3.982
			C9.15,16.677,8.975,16.708,8.871,16.708z"/>
		<path fill="#515F70" d="M8.96,7.688c0.045,0.016,0.104,0.043,0.174,0.085l6.569,3.983c0.151,0.091,0.205,0.165,0.221,0.17
			c-0.016,0.027-0.07,0.102-0.221,0.193l-6.568,3.982c-0.071,0.043-0.13,0.07-0.175,0.086c-0.01-0.046-0.018-0.11-0.018-0.194V7.882
			C8.943,7.798,8.951,7.734,8.96,7.688 M8.871,6.667c-0.55,0-0.928,0.443-0.928,1.214v8.111c0,0.771,0.378,1.214,0.928,1.214
			c0.235,0,0.501-0.081,0.782-0.251l6.568-3.982c0.941-0.57,0.941-1.503,0-2.073L9.653,6.918C9.372,6.748,9.106,6.667,8.871,6.667
			L8.871,6.667z"/>
	</g>
</g>
<g id="Layer_2">
</g>
</svg>
