<?xml version="1.0" encoding="utf-8"?>
<!-- Generator: Adobe Illustrator 16.0.0, SVG Export Plug-In . SVG Version: 6.00 Build 0)  -->
<!DOCTYPE svg PUBLIC "-//W3C//DTD SVG 1.1//EN" "http://www.w3.org/Graphics/SVG/1.1/DTD/svg11.dtd">
<svg version="1.1" xmlns="http://www.w3.org/2000/svg" xmlns:xlink="http://www.w3.org/1999/xlink" x="0px" y="0px" width="24px"
	 height="24px" viewBox="0 0 24 24" enable-background="new 0 0 24 24" xml:space="preserve">
<g id="Layer_1">
	<g>
		<path fill="#515F70" d="M12,3.531c4.67,0,8.469,3.799,8.469,8.469S16.67,20.469,12,20.469S3.531,16.67,3.531,12
			S7.33,3.531,12,3.531 M12,2.031c-5.506,0-9.969,4.463-9.969,9.969S6.494,21.969,12,21.969s9.969-4.463,9.969-9.969
			S17.506,2.031,12,2.031L12,2.031z"/>
	</g>
	<g>
		<path fill="#515F70" d="M12.75,9.751c0-0.412-0.338-0.75-0.75-0.75l0,0c-0.412,0-0.75,0.338-0.75,0.75v7.458
			c0,0.412,0.338,0.75,0.75,0.75l0,0c0.412,0,0.75-0.338,0.75-0.75V9.751z"/>
	</g>
	<circle fill="#515F70" cx="12" cy="6.969" r="0.75"/>
</g>
<g id="Layer_2">
</g>
</svg>
