<?xml version="1.0" encoding="utf-8"?>
<!-- Generator: Adobe Illustrator 16.0.0, SVG Export Plug-In . SVG Version: 6.00 Build 0)  -->
<!DOCTYPE svg PUBLIC "-//W3C//DTD SVG 1.1//EN" "http://www.w3.org/Graphics/SVG/1.1/DTD/svg11.dtd">
<svg version="1.1" xmlns="http://www.w3.org/2000/svg" xmlns:xlink="http://www.w3.org/1999/xlink" x="0px" y="0px" width="24px"
	 height="24px" viewBox="0 0 24 24" enable-background="new 0 0 24 24" xml:space="preserve">
<g id="Layer_1">
</g>
<g id="Layer_2">
	<g>
		
			<path fill="none" stroke="#515F70" stroke-width="1.5" stroke-linecap="round" stroke-linejoin="round" stroke-miterlimit="10" d="
			M6.918,12.752l2.692,2.692c0.121,0.12,0.284,0.217,0.428,0.217c0.144,0,0.303-0.097,0.423-0.212l6.428-6.461"/>
		<g>
			<g>
				<path fill="#515F70" d="M12,3.406c4.687,0,8.5,3.813,8.5,8.5s-3.813,8.5-8.5,8.5s-8.5-3.813-8.5-8.5S7.313,3.406,12,3.406
					 M12,1.906c-5.524,0-10,4.476-10,10s4.476,10,10,10s10-4.476,10-10S17.524,1.906,12,1.906L12,1.906z"/>
			</g>
		</g>
	</g>
</g>
</svg>
