<?xml version="1.0" encoding="utf-8"?>
<!-- Generator: Adobe Illustrator 16.0.0, SVG Export Plug-In . SVG Version: 6.00 Build 0)  -->
<!DOCTYPE svg PUBLIC "-//W3C//DTD SVG 1.1//EN" "http://www.w3.org/Graphics/SVG/1.1/DTD/svg11.dtd">
<svg version="1.1" xmlns="http://www.w3.org/2000/svg" xmlns:xlink="http://www.w3.org/1999/xlink" x="0px" y="0px" width="24px"
	 height="24px" viewBox="0 0 24 24" enable-background="new 0 0 24 24" xml:space="preserve">
<g id="Layer_1">
</g>
<g id="Layer_2">
	<g>
		<g>
			<path fill="#515F70" d="M12.009,4.005c0.36,0.427,1.13,0.734,2.522,1.29c0.102,0.045,2.502,1.14,2.502,5.059
				c0,3.422,0.565,5.49,1.171,6.723H5.799c0.604-1.231,1.167-3.297,1.167-6.713c0-3.92,2.419-5.022,2.502-5.059
				C10.873,4.742,11.647,4.432,12.009,4.005 M12,1.938c-0.691,0-1.237,0.51-1.237,1.148c0,0.032,0,0.032,0,0.032
				c0.003,0.028-0.831,0.385-1.852,0.794c0,0-3.444,1.378-3.444,6.451c0,5.915-1.783,7.104-1.783,7.104
				c-0.915,0.61-0.764,1.109,0.336,1.109h15.96c1.1,0,1.252-0.501,0.338-1.112c0,0-1.785-1.195-1.785-7.11
				c0-5.073-3.424-6.442-3.424-6.442c-1.021-0.408-1.854-0.765-1.852-0.793c0,0,0,0,0-0.032C13.258,2.447,12.691,1.938,12,1.938
				L12,1.938z"/>
		</g>
		<g>
			<path fill="#515F70" d="M12.01,21.898c1.393,0,2.186-1.37,2.186-1.37c0.275-0.476,0.051-0.865-0.499-0.865h-3.375
				c-0.55,0-0.774,0.39-0.499,0.865C9.824,20.528,10.617,21.898,12.01,21.898z"/>
		</g>
	</g>
</g>
</svg>
