<?xml version="1.0" encoding="utf-8"?>
<!-- Generator: Adobe Illustrator 16.0.0, SVG Export Plug-In . SVG Version: 6.00 Build 0)  -->
<!DOCTYPE svg PUBLIC "-//W3C//DTD SVG 1.1//EN" "http://www.w3.org/Graphics/SVG/1.1/DTD/svg11.dtd">
<svg version="1.1" xmlns="http://www.w3.org/2000/svg" xmlns:xlink="http://www.w3.org/1999/xlink" x="0px" y="0px" width="24px"
	 height="24px" viewBox="0 0 24 24" enable-background="new 0 0 24 24" xml:space="preserve">
<g id="Layer_1">
</g>
<g id="Layer_2">
	<g>
		<g>
			<path fill="#515F70" d="M8.945,3.765C9.706,4.626,10.816,5.151,12,5.151s2.295-0.525,3.056-1.387
				c0.206,0.076,0.409,0.161,0.609,0.253c-0.07,1.146,0.344,2.303,1.181,3.142c0.769,0.768,1.79,1.19,2.876,1.19
				c0.088,0,0.176-0.003,0.263-0.009c0.092,0.199,0.176,0.402,0.252,0.608c-0.86,0.761-1.385,1.87-1.385,3.053
				s0.524,2.293,1.384,3.054c-0.077,0.206-0.161,0.409-0.252,0.608c-0.087-0.005-0.174-0.008-0.261-0.008
				c-1.087,0-2.109,0.424-2.876,1.192c-0.835,0.835-1.25,1.989-1.181,3.135c-0.201,0.093-0.406,0.177-0.613,0.254
				c-0.761-0.858-1.87-1.382-3.052-1.382c-1.181,0-2.291,0.523-3.052,1.382c-0.207-0.077-0.411-0.161-0.612-0.254
				c0.069-1.145-0.345-2.3-1.181-3.135c-0.769-0.769-1.791-1.192-2.876-1.192c-0.087,0-0.175,0.003-0.262,0.008
				c-0.092-0.199-0.176-0.402-0.252-0.608c0.86-0.761,1.384-1.871,1.384-3.054S4.624,9.71,3.763,8.948
				c0.076-0.205,0.16-0.408,0.251-0.607C4.103,8.347,4.19,8.35,4.279,8.35c1.085,0,2.106-0.423,2.877-1.192
				c0.836-0.837,1.25-1.994,1.179-3.14C8.535,3.926,8.738,3.841,8.945,3.765 M12.047,16.579c2.527,0,4.583-2.057,4.583-4.584
				s-2.056-4.583-4.583-4.583c-2.528,0-4.584,2.056-4.584,4.583S9.52,16.579,12.047,16.579 M14.4,2
				c-0.37,0.965-1.305,1.651-2.4,1.651S9.97,2.965,9.601,2C8.534,2.256,7.533,2.676,6.625,3.234c0.42,0.943,0.244,2.088-0.53,2.863
				C5.593,6.599,4.936,6.85,4.279,6.85c-0.357,0-0.714-0.074-1.046-0.222C2.675,7.536,2.255,8.537,2,9.604
				c0.964,0.371,1.649,1.305,1.649,2.398c0,1.095-0.684,2.028-1.648,2.399c0.255,1.066,0.676,2.068,1.234,2.976
				c0.331-0.146,0.688-0.221,1.043-0.221c0.657,0,1.314,0.251,1.816,0.753c0.773,0.772,0.95,1.915,0.532,2.858
				c0.908,0.558,1.91,0.979,2.975,1.232c0.372-0.962,1.305-1.645,2.398-1.645s2.027,0.683,2.397,1.645
				c1.066-0.254,2.067-0.675,2.976-1.232c-0.418-0.943-0.241-2.086,0.532-2.858c0.501-0.502,1.159-0.753,1.816-0.753
				c0.356,0,0.711,0.074,1.043,0.221c0.558-0.907,0.979-1.909,1.234-2.976c-0.964-0.371-1.647-1.305-1.647-2.399
				c0-1.094,0.685-2.027,1.648-2.398c-0.255-1.066-0.675-2.067-1.233-2.976c-0.332,0.147-0.688,0.222-1.045,0.222
				c-0.657,0-1.314-0.251-1.816-0.752c-0.774-0.775-0.951-1.92-0.531-2.863C16.467,2.676,15.466,2.256,14.4,2L14.4,2z
				 M12.047,15.079c-1.708,0-3.084-1.383-3.084-3.084c0-1.7,1.376-3.083,3.084-3.083c1.707,0,3.083,1.383,3.083,3.083
				C15.131,13.696,13.754,15.079,12.047,15.079L12.047,15.079z"/>
		</g>
	</g>
</g>
</svg>
