<?xml version="1.0" encoding="utf-8"?>
<!-- Generator: Adobe Illustrator 16.0.0, SVG Export Plug-In . SVG Version: 6.00 Build 0)  -->
<!DOCTYPE svg PUBLIC "-//W3C//DTD SVG 1.1//EN" "http://www.w3.org/Graphics/SVG/1.1/DTD/svg11.dtd">
<svg version="1.1" xmlns="http://www.w3.org/2000/svg" xmlns:xlink="http://www.w3.org/1999/xlink" x="0px" y="0px" width="24px"
	 height="24px" viewBox="0 0 24 24" enable-background="new 0 0 24 24" xml:space="preserve">
<g id="Layer_1">
	<g>
		<g>
			<path fill="#515F70" d="M8.563,6.438c0.154,0,0.308,0.077,0.4,0.201l1.649,2.199c0.283,0.378,0.729,0.6,1.2,0.6h8.25
				c0.275,0,0.5,0.224,0.5,0.5v10c0,0.276-0.225,0.5-0.5,0.5h-16c-0.275,0-0.5-0.224-0.5-0.5v-13c0-0.276,0.225-0.5,0.5-0.5H8.563
				 M8.563,4.938h-4.5c-1.103,0-2,0.898-2,2v13c0,1.103,0.897,2,2,2h16c1.103,0,2-0.897,2-2v-10c0-1.102-0.897-2-2-2h-8.25
				l-1.649-2.199C9.788,5.236,9.189,4.938,8.563,4.938L8.563,4.938z"/>
		</g>
	</g>
</g>
<g id="Layer_2">
</g>
</svg>
