<?xml version="1.0" encoding="utf-8"?>
<!-- Generator: Adobe Illustrator 16.0.0, SVG Export Plug-In . SVG Version: 6.00 Build 0)  -->
<!DOCTYPE svg PUBLIC "-//W3C//DTD SVG 1.1//EN" "http://www.w3.org/Graphics/SVG/1.1/DTD/svg11.dtd">
<svg version="1.1" xmlns="http://www.w3.org/2000/svg" xmlns:xlink="http://www.w3.org/1999/xlink" x="0px" y="0px" width="24px"
	 height="24px" viewBox="0 0 24 24" enable-background="new 0 0 24 24" xml:space="preserve">
<g id="Layer_1">
</g>
<g id="Layer_2">
	<g>
		<path fill="#515F70" d="M9.021,3.563c0.271,0,0.5,0.229,0.5,0.5v4.959c0,0.271-0.229,0.5-0.5,0.5H4.063
			c-0.271,0-0.5-0.229-0.5-0.5V4.063c0-0.271,0.229-0.5,0.5-0.5H9.021 M9.021,2.063H4.063c-1.1,0-2,0.9-2,2v4.959c0,1.1,0.9,2,2,2
			h4.958c1.1,0,2-0.9,2-2V4.063C11.021,2.963,10.121,2.063,9.021,2.063L9.021,2.063z"/>
	</g>
	<g>
		<path fill="#515F70" d="M20,3.563c0.271,0,0.5,0.229,0.5,0.5v4.959c0,0.271-0.229,0.5-0.5,0.5h-4.958c-0.271,0-0.5-0.229-0.5-0.5
			V4.063c0-0.271,0.229-0.5,0.5-0.5H20 M20,2.063h-4.958c-1.1,0-2,0.9-2,2v4.959c0,1.1,0.9,2,2,2H20c1.1,0,2-0.9,2-2V4.063
			C22,2.963,21.1,2.063,20,2.063L20,2.063z"/>
	</g>
	<g>
		<path fill="#515F70" d="M9.021,14.499c0.271,0,0.5,0.229,0.5,0.5v4.99c0,0.271-0.229,0.5-0.5,0.5h-4.99
			c-0.271,0-0.5-0.229-0.5-0.5v-4.99c0-0.271,0.229-0.5,0.5-0.5H9.021 M9.021,12.999h-4.99c-1.1,0-2,0.9-2,2v4.99c0,1.1,0.9,2,2,2
			h4.99c1.1,0,2-0.9,2-2v-4.99C11.021,13.899,10.121,12.999,9.021,12.999L9.021,12.999z"/>
	</g>
	<g>
		<path fill="#515F70" d="M20,14.531c0.271,0,0.5,0.229,0.5,0.5v4.958c0,0.271-0.229,0.5-0.5,0.5h-4.958c-0.271,0-0.5-0.229-0.5-0.5
			v-4.958c0-0.271,0.229-0.5,0.5-0.5H20 M20,13.031h-4.958c-1.1,0-2,0.9-2,2v4.958c0,1.1,0.9,2,2,2H20c1.1,0,2-0.9,2-2v-4.958
			C22,13.932,21.1,13.031,20,13.031L20,13.031z"/>
	</g>
</g>
</svg>
