<?xml version="1.0" encoding="utf-8"?>
<!-- Generator: Adobe Illustrator 16.0.0, SVG Export Plug-In . SVG Version: 6.00 Build 0)  -->
<!DOCTYPE svg PUBLIC "-//W3C//DTD SVG 1.1//EN" "http://www.w3.org/Graphics/SVG/1.1/DTD/svg11.dtd">
<svg version="1.1" xmlns="http://www.w3.org/2000/svg" xmlns:xlink="http://www.w3.org/1999/xlink" x="0px" y="0px" width="24px"
	 height="24px" viewBox="0 0 24 24" enable-background="new 0 0 24 24" xml:space="preserve">
<g id="Layer_1">
</g>
<g id="Layer_2">
	<g id="ic_x5F_moreVert_x5F_light" opacity="0.8">
		<rect fill="none" width="24" height="24"/>
		<path fill="#515F70" d="M12,8c1.104,0,2-0.896,2-2s-0.896-2-2-2s-2,0.896-2,2S10.896,8,12,8z M12,10c-1.104,0-2,0.896-2,2
			s0.896,2,2,2s2-0.896,2-2S13.104,10,12,10z M12,16c-1.104,0-2,0.896-2,2s0.896,2,2,2s2-0.896,2-2S13.104,16,12,16z"/>
	</g>
</g>
</svg>
