<?xml version="1.0" encoding="utf-8"?>
<!-- Generator: Adobe Illustrator 16.0.0, SVG Export Plug-In . SVG Version: 6.00 Build 0)  -->
<!DOCTYPE svg PUBLIC "-//W3C//DTD SVG 1.1//EN" "http://www.w3.org/Graphics/SVG/1.1/DTD/svg11.dtd">
<svg version="1.1" xmlns="http://www.w3.org/2000/svg" xmlns:xlink="http://www.w3.org/1999/xlink" x="0px" y="0px" width="24px"
	 height="24px" viewBox="0 0 24 24" enable-background="new 0 0 24 24" xml:space="preserve">
<g id="Layer_1">
	<g>
		<path fill="#515F70" d="M19.938,3.563c0.271,0,0.5,0.229,0.5,0.5v15.875c0,0.271-0.229,0.5-0.5,0.5H4.063
			c-0.271,0-0.5-0.229-0.5-0.5V4.063c0-0.271,0.229-0.5,0.5-0.5H19.938 M19.938,2.063H4.063c-1.1,0-2,0.9-2,2v15.875
			c0,1.1,0.9,2,2,2h15.875c1.1,0,2-0.9,2-2V4.063C21.938,2.963,21.037,2.063,19.938,2.063L19.938,2.063z"/>
	</g>
	<circle fill="#515F70" cx="9.415" cy="8.198" r="1.915"/>
	<g>
		<path fill="none" stroke="#515F70" stroke-width="1.5" stroke-linecap="round" stroke-miterlimit="10" d="M3,18.667l2.968-3.55
			c0.706-0.844,1.896-0.875,2.646-0.069l1.17,1.258c0.749,0.806,1.873,0.724,2.498-0.182l5.875-8.52
			c0.625-0.905,1.499-1.362,1.943-1.015c0.443,0.348,0.807,0.632,0.807,0.632"/>
	</g>
</g>
<g id="Layer_2">
</g>
</svg>
