<?xml version="1.0" encoding="utf-8"?>
<!-- Generator: Adobe Illustrator 16.0.0, SVG Export Plug-In . SVG Version: 6.00 Build 0)  -->
<!DOCTYPE svg PUBLIC "-//W3C//DTD SVG 1.1//EN" "http://www.w3.org/Graphics/SVG/1.1/DTD/svg11.dtd">
<svg version="1.1" xmlns="http://www.w3.org/2000/svg" xmlns:xlink="http://www.w3.org/1999/xlink" x="0px" y="0px" width="48px"
	 height="48px" viewBox="0 0 48 48" enable-background="new 0 0 48 48" xml:space="preserve">
<g id="Layer_1">
</g>
<g id="Layer_2">
	<g id="ic_x5F_moreVert_x5F_light" opacity="0.8">
	</g>
	<g>
		<path fill="#1C81C3" d="M46,0.854c0.552,0,1,0.449,1,1v44c0,0.551-0.448,1-1,1H2c-0.552,0-1-0.449-1-1v-44c0-0.551,0.448-1,1-1H46
			 M46-0.146H2c-1.1,0-2,0.9-2,2v44c0,1.1,0.9,2,2,2h44c1.1,0,2-0.9,2-2v-44C48,0.754,47.1-0.146,46-0.146L46-0.146z"/>
	</g>
	<g>
		<path fill="#1C81C3" d="M24.5,35.484c0,0.275-0.225,0.5-0.5,0.5l0,0c-0.275,0-0.5-0.225-0.5-0.5v-23c0-0.275,0.225-0.5,0.5-0.5
			l0,0c0.275,0,0.5,0.225,0.5,0.5V35.484z"/>
	</g>
	<g>
		<path fill="#1C81C3" d="M12.5,24.484c-0.275,0-0.5-0.225-0.5-0.5l0,0c0-0.275,0.225-0.5,0.5-0.5h23c0.275,0,0.5,0.225,0.5,0.5l0,0
			c0,0.275-0.225,0.5-0.5,0.5H12.5z"/>
	</g>
</g>
</svg>
