<?xml version="1.0" encoding="utf-8"?>
<!-- Generator: Adobe Illustrator 16.0.0, SVG Export Plug-In . SVG Version: 6.00 Build 0)  -->
<!DOCTYPE svg PUBLIC "-//W3C//DTD SVG 1.1//EN" "http://www.w3.org/Graphics/SVG/1.1/DTD/svg11.dtd">
<svg version="1.1" xmlns="http://www.w3.org/2000/svg" xmlns:xlink="http://www.w3.org/1999/xlink" x="0px" y="0px" width="24px"
	 height="24px" viewBox="0 0 24 24" enable-background="new 0 0 24 24" xml:space="preserve">
<g id="Layer_1">
	<g>
		<g>
			<g>
				<path fill="#515F70" d="M12,3.5c3.584,0,6.5,3.003,6.5,6.695c0,3.194-4.448,8.404-6.161,10.141
					c-0.122,0.123-0.265,0.141-0.339,0.141s-0.217-0.018-0.337-0.141C9.948,18.598,5.5,13.388,5.5,10.195
					C5.5,6.503,8.416,3.5,12,3.5 M12,2c-4.411,0-8,3.676-8,8.195c0,4.518,6.595,11.195,6.595,11.195
					c0.387,0.392,0.896,0.587,1.405,0.587c0.51,0,1.019-0.195,1.406-0.587c0,0,6.594-6.676,6.594-11.195C20,5.676,16.411,2,12,2
					L12,2z"/>
			</g>
		</g>
	</g>
	<circle fill="none" stroke="#515F70" stroke-width="1.5" stroke-miterlimit="10" cx="12" cy="10" r="2.542"/>
</g>
<g id="Layer_2">
</g>
</svg>
