<?xml version="1.0" encoding="utf-8"?>
<!-- Generator: Adobe Illustrator 16.0.0, SVG Export Plug-In . SVG Version: 6.00 Build 0)  -->
<!DOCTYPE svg PUBLIC "-//W3C//DTD SVG 1.1//EN" "http://www.w3.org/Graphics/SVG/1.1/DTD/svg11.dtd">
<svg version="1.1" xmlns="http://www.w3.org/2000/svg" xmlns:xlink="http://www.w3.org/1999/xlink" x="0px" y="0px" width="48px"
	 height="48px" viewBox="0 0 48 48" enable-background="new 0 0 48 48" xml:space="preserve">
<g id="Layer_1">
	<g>
		<g>
			<path fill="#515F70" d="M17.027,11.053c0.939,0,1.835,0.448,2.398,1.201l3.3,4.397c0.189,0.252,0.485,0.4,0.8,0.4h16.494
				c1.654,0,2.999,1.345,2.999,2.999v19.993c0,1.653-1.345,2.999-2.999,2.999H8.03c-1.653,0-2.999-1.345-2.999-2.999V14.052
				c0-1.653,1.345-2.999,2.999-2.999H17.027 M17.027,10.053H8.03c-2.206,0-3.999,1.796-3.999,3.999v25.991
				c0,2.204,1.792,3.999,3.999,3.999h31.989c2.207,0,3.999-1.794,3.999-3.999V20.05c0-2.202-1.792-3.999-3.999-3.999H23.524
				l-3.3-4.397C19.475,10.651,18.28,10.053,17.027,10.053L17.027,10.053z"/>
		</g>
	</g>
</g>
<g id="Layer_2">
</g>
</svg>
