<?xml version="1.0" encoding="utf-8"?>
<!-- Generator: Adobe Illustrator 16.0.0, SVG Export Plug-In . SVG Version: 6.00 Build 0)  -->
<!DOCTYPE svg PUBLIC "-//W3C//DTD SVG 1.1//EN" "http://www.w3.org/Graphics/SVG/1.1/DTD/svg11.dtd">
<svg version="1.1" xmlns="http://www.w3.org/2000/svg" xmlns:xlink="http://www.w3.org/1999/xlink" x="0px" y="0px" width="24px"
	 height="24px" viewBox="0 0 24 24" enable-background="new 0 0 24 24" xml:space="preserve">
<g id="Layer_1">
	<g>
		<g>
			<path fill="#515F70" d="M8.5,6.438c0.154,0,0.307,0.076,0.4,0.201l1.65,2.199c0.283,0.377,0.728,0.6,1.2,0.6H20
				c0.276,0,0.5,0.224,0.5,0.5v10c0,0.276-0.224,0.5-0.5,0.5H4c-0.276,0-0.5-0.224-0.5-0.5v-13c0-0.276,0.224-0.5,0.5-0.5H8.5
				 M8.5,4.938H4c-1.103,0-2,0.898-2,2v13c0,1.103,0.897,2,2,2h16c1.103,0,2-0.897,2-2v-10c0-1.102-0.897-2-2-2h-8.25L10.1,5.738
				C9.725,5.236,9.126,4.938,8.5,4.938L8.5,4.938z"/>
		</g>
		<g>
			<path fill="#515F70" d="M12.75,18.188c0,0.413-0.337,0.75-0.75,0.75l0,0c-0.413,0-0.75-0.337-0.75-0.75v-6.5
				c0-0.413,0.337-0.75,0.75-0.75l0,0c0.413,0,0.75,0.337,0.75,0.75V18.188z"/>
		</g>
		<g>
			<path fill="#515F70" d="M8.75,15.688c-0.413,0-0.75-0.337-0.75-0.75l0,0c0-0.413,0.337-0.75,0.75-0.75h6.5
				c0.413,0,0.75,0.337,0.75,0.75l0,0c0,0.413-0.337,0.75-0.75,0.75H8.75z"/>
		</g>
	</g>
</g>
<g id="Layer_2">
</g>
</svg>
