<?xml version="1.0" encoding="utf-8"?>
<!-- Generator: Adobe Illustrator 16.0.0, SVG Export Plug-In . SVG Version: 6.00 Build 0)  -->
<!DOCTYPE svg PUBLIC "-//W3C//DTD SVG 1.1//EN" "http://www.w3.org/Graphics/SVG/1.1/DTD/svg11.dtd">
<svg version="1.1" xmlns="http://www.w3.org/2000/svg" xmlns:xlink="http://www.w3.org/1999/xlink" x="0px" y="0px" width="24px"
	 height="24px" viewBox="0 0 24 24" enable-background="new 0 0 24 24" xml:space="preserve">
<g id="Layer_1">
</g>
<g id="Layer_2">
	<g>
		<g>
			<path fill="#515F70" d="M18.161,3.82l2.099,2.086L6.346,19.82c-0.142,0.142-0.579,0.347-0.779,0.364l-1.88,0.173l0.181-1.829
				c0.02-0.202,0.229-0.645,0.374-0.789L18.161,3.82 M18.159,2.117c-0.257,0-0.514,0.098-0.709,0.292l-14.27,14.27
				c-0.389,0.389-0.751,1.155-0.806,1.702L2.114,21.02c-0.051,0.517,0.306,0.908,0.808,0.908c0.029,0,0.06-0.001,0.09-0.004
				l2.692-0.245c0.548-0.05,1.314-0.409,1.703-0.798L21.677,6.61c0.389-0.389,0.388-1.024-0.002-1.412l-2.808-2.791
				C18.672,2.214,18.416,2.117,18.159,2.117L18.159,2.117z"/>
		</g>
	</g>
	
		<line fill="none" stroke="#515F70" stroke-width="1.5" stroke-linejoin="round" stroke-miterlimit="10" x1="15.557" y1="4.302" x2="19.771" y2="8.516"/>
</g>
</svg>
