<?xml version="1.0" encoding="utf-8"?>
<!-- Generator: Adobe Illustrator 16.0.0, SVG Export Plug-In . SVG Version: 6.00 Build 0)  -->
<!DOCTYPE svg PUBLIC "-//W3C//DTD SVG 1.1//EN" "http://www.w3.org/Graphics/SVG/1.1/DTD/svg11.dtd">
<svg version="1.1" xmlns="http://www.w3.org/2000/svg" xmlns:xlink="http://www.w3.org/1999/xlink" x="0px" y="0px" width="30px"
	 height="30px" viewBox="0 0 24 24" enable-background="new 0 0 24 24" xml:space="preserve">
<g id="Layer_1">
</g>
<g id="Layer_2">
	<g>
		<g>
			<g>
				<path fill="#515F70" d="M11.996,3.406c4.687,0,8.5,3.813,8.5,8.5s-3.813,8.5-8.5,8.5s-8.5-3.813-8.5-8.5
					S7.309,3.406,11.996,3.406 M11.996,1.906c-5.524,0-10,4.476-10,10s4.476,10,10,10s10-4.476,10-10S17.52,1.906,11.996,1.906
					L11.996,1.906z"/>
			</g>
		</g>
	</g>
	<g>
		<path fill="none" stroke="#515F70" stroke-width="1.5" stroke-linejoin="round" stroke-miterlimit="10" d="M4.843,18.134
			c1.077-2.269,2.746-2.751,2.817-2.771l0.119-0.016h0.844c0.681,0,1.237-0.555,1.237-1.237v-0.4
			c-0.334-0.43-0.582-0.894-0.739-1.384l-0.032-0.101C8.575,11.759,8.447,11,8.772,10.41c0.009-0.02,0.032-0.058,0.06-0.1
			L8.829,9.828C8.828,9.503,8.828,9.179,8.833,8.856C8.857,8.24,9.024,7.697,9.314,7.273c0.343-0.514,0.916-0.904,1.569-1.069
			c0.64-0.162,1.343-0.179,2.03-0.048c0.615,0.118,1.142,0.393,1.523,0.793c0.449,0.476,0.707,1.171,0.725,1.958
			c0.002,0.354,0.001,0.703,0.001,1.051l-0.001,0.356c0.013,0.019,0.023,0.037,0.032,0.054c0.34,0.542,0.25,1.321-0.22,1.791
			l-0.074,0.068c-0.184,0.583-0.439,1.076-0.769,1.498v0.384c0,0.683,0.556,1.237,1.237,1.237l0.963,0.016
			c0.07,0.021,1.74,0.503,2.816,2.771"/>
	</g>
</g>
</svg>
