<?xml version="1.0" encoding="utf-8"?>
<!-- Generator: Adobe Illustrator 16.0.0, SVG Export Plug-In . SVG Version: 6.00 Build 0)  -->
<!DOCTYPE svg PUBLIC "-//W3C//DTD SVG 1.1//EN" "http://www.w3.org/Graphics/SVG/1.1/DTD/svg11.dtd">
<svg version="1.1" xmlns="http://www.w3.org/2000/svg" xmlns:xlink="http://www.w3.org/1999/xlink" x="0px" y="0px" width="24px"
	 height="24px" viewBox="0 0 24 24" enable-background="new 0 0 24 24" xml:space="preserve">
<g id="Layer_1">
	<g>
		<path fill="#515F70" d="M19.354,13.861c-0.766,3.356-3.769,5.871-7.354,5.871c-3.4,0-6.279-2.262-7.222-5.359l2.191-2.189H1.936
			v5.032l1.532-1.532c1.382,3.355,4.685,5.726,8.531,5.726c4.515,0,8.274-3.26,9.065-7.548H19.354z"/>
		<path fill="#515F70" d="M20.532,8.684c-1.383-3.354-4.686-5.726-8.533-5.726c-4.513,0-8.272,3.26-9.064,7.548h1.712
			c0.765-3.357,3.77-5.871,7.353-5.871c3.401,0,6.281,2.262,7.224,5.359l-2.19,2.189h5.032V7.152L20.532,8.684z"/>
	</g>
</g>
<g id="Layer_2">
</g>
</svg>
