<?xml version="1.0" encoding="utf-8"?>
<!-- Generator: Adobe Illustrator 16.0.0, SVG Export Plug-In . SVG Version: 6.00 Build 0)  -->
<!DOCTYPE svg PUBLIC "-//W3C//DTD SVG 1.1//EN" "http://www.w3.org/Graphics/SVG/1.1/DTD/svg11.dtd">
<svg version="1.1" xmlns="http://www.w3.org/2000/svg" xmlns:xlink="http://www.w3.org/1999/xlink" x="0px" y="0px" width="24px"
	 height="24px" viewBox="0 0 24 24" enable-background="new 0 0 24 24" xml:space="preserve">
<g id="Layer_1">
	<g>
		<path fill="#515F70" d="M14.958,7.027c0.459,0,0.833,0.374,0.833,0.833v1.612v2.427l2.171-1.085l2.496-1.248v5.921l-2.497-1.247
			l-2.17-1.084v2.426v1.611c0,0.459-0.374,0.833-0.833,0.833h-10.5c-0.459,0-0.833-0.374-0.833-0.833V7.86
			c0-0.459,0.374-0.833,0.833-0.833H14.958 M14.958,5.527h-10.5c-1.287,0-2.333,1.047-2.333,2.333v9.333
			c0,1.287,1.046,2.333,2.333,2.333h10.5c1.287,0,2.333-1.047,2.333-2.333v-1.611l2.979,1.488c0.164,0.082,0.344,0.123,0.521,0.123
			c0.214,0,0.427-0.059,0.613-0.174c0.344-0.212,0.554-0.588,0.554-0.992v-7c0-0.404-0.21-0.78-0.554-0.992
			c-0.188-0.116-0.4-0.174-0.613-0.174c-0.179,0-0.357,0.041-0.521,0.123l-2.979,1.489V7.86C17.291,6.574,16.245,5.527,14.958,5.527
			L14.958,5.527z"/>
	</g>
	<rect x="15.792" y="9.792" fill="#515F70" width="1.499" height="6.939"/>
</g>
<g id="Layer_2">
</g>
</svg>
