<?xml version="1.0" encoding="utf-8"?>
<!-- Generator: Adobe Illustrator 16.0.0, SVG Export Plug-In . SVG Version: 6.00 Build 0)  -->
<!DOCTYPE svg PUBLIC "-//W3C//DTD SVG 1.1//EN" "http://www.w3.org/Graphics/SVG/1.1/DTD/svg11.dtd">
<svg version="1.1" xmlns="http://www.w3.org/2000/svg" xmlns:xlink="http://www.w3.org/1999/xlink" x="0px" y="0px" width="24px"
	 height="24px" viewBox="0 0 24 24" enable-background="new 0 0 24 24" xml:space="preserve">
<g id="Layer_1">
</g>
<g id="Layer_2">
	<g>
		<path fill="#515F70" d="M17,4.479c1.378,0,2.5,1.121,2.5,2.5s-1.122,2.5-2.5,2.5s-2.5-1.121-2.5-2.5S15.622,4.479,17,4.479
			 M17,2.979c-2.209,0-4,1.791-4,4s1.791,4,4,4c2.209,0,4-1.791,4-4S19.209,2.979,17,2.979L17,2.979z"/>
	</g>
	<g>
		<g>
			<path fill="#515F70" d="M17,15.5c1.378,0,2.5,1.121,2.5,2.5s-1.122,2.5-2.5,2.5s-2.5-1.121-2.5-2.5S15.622,15.5,17,15.5 M17,14
				c-2.209,0-4,1.791-4,4s1.791,4,4,4c2.209,0,4-1.791,4-4S19.209,14,17,14L17,14z"/>
		</g>
	</g>
	<g>
		<g>
			<path fill="#515F70" d="M6,9.99c1.378,0,2.5,1.121,2.5,2.5s-1.122,2.5-2.5,2.5s-2.5-1.121-2.5-2.5S4.622,9.99,6,9.99 M6,8.49
				c-2.209,0-4,1.791-4,4s1.791,4,4,4c2.209,0,4-1.791,4-4S8.21,8.49,6,8.49L6,8.49z"/>
		</g>
	</g>
	<line fill="none" stroke="#515F70" stroke-width="1.5" stroke-miterlimit="10" x1="14.521" y1="8.167" x2="8.583" y2="10.979"/>
	<line fill="none" stroke="#515F70" stroke-width="1.5" stroke-miterlimit="10" x1="14.81" y1="16.956" x2="8.864" y2="14.161"/>
</g>
</svg>
