<?xml version="1.0" encoding="utf-8"?>
<!-- Generator: Adobe Illustrator 16.0.0, SVG Export Plug-In . SVG Version: 6.00 Build 0)  -->
<!DOCTYPE svg PUBLIC "-//W3C//DTD SVG 1.1//EN" "http://www.w3.org/Graphics/SVG/1.1/DTD/svg11.dtd">
<svg version="1.1" xmlns="http://www.w3.org/2000/svg" xmlns:xlink="http://www.w3.org/1999/xlink" x="0px" y="0px" width="456.1px"
	 height="299px" viewBox="0 0 456.1 299" enable-background="new 0 0 456.1 299" xml:space="preserve">
<g id="Layer_1" display="none">
</g>
<g id="Layer_2">
</g>
<g id="frame">
</g>
<g id="folder">
</g>
<g id="Layer_5">
</g>
<g id="Layer_6">
</g>
<g id="Layer_7">
</g>
<g id="Layer_8">
	
		<circle fill="none" stroke="#99A1AF" stroke-width="2" stroke-linecap="round" stroke-linejoin="round" stroke-miterlimit="10" cx="172.903" cy="67.828" r="10.546"/>
	<path fill="none" stroke="#99A1AF" stroke-width="2" stroke-linecap="round" stroke-linejoin="round" stroke-miterlimit="10" d="
		M325.975,59.842c0,0,5.087-2.042,9.417,2.478c0,0,2.478-5.219,7.575-3.919"/>
	<path fill="none" stroke="#99A1AF" stroke-width="2" stroke-linecap="round" stroke-linejoin="round" stroke-miterlimit="10" d="
		M388.361,88.648c0,0,6.586-2.644,12.192,3.208c0,0,3.208-6.757,9.808-5.075"/>
	<path fill="none" stroke="#99A1AF" stroke-width="2" stroke-linecap="round" stroke-miterlimit="10" d="M271.799,84.102
		c-0.286-0.905-0.44-1.867-0.44-2.867c0-5.258,4.263-9.521,9.522-9.521c0.658,0,1.299,0.066,1.918,0.193"/>
	<path fill="none" stroke="#99A1AF" stroke-width="2" stroke-linecap="round" stroke-miterlimit="10" d="M307.554,73.08
		c0.354-0.056,0.718-0.086,1.09-0.086c3.796,0,6.875,3.078,6.875,6.875c0,1.596-0.544,3.064-1.456,4.23"/>
	<path fill="none" stroke="#99A1AF" stroke-width="2" stroke-linecap="round" stroke-miterlimit="10" d="M282.848,71.911
		c0.547-6.306,5.842-11.254,12.291-11.254c6.813,0,12.338,5.523,12.338,12.337"/>
	
		<line fill="none" stroke="#99A1AF" stroke-width="2" stroke-linecap="round" stroke-miterlimit="10" x1="247.767" y1="84.099" x2="271.799" y2="84.099"/>
	
		<line fill="none" stroke="#99A1AF" stroke-width="2" stroke-linecap="round" stroke-miterlimit="10" x1="314.591" y1="84.099" x2="323.809" y2="84.099"/>
	
		<line fill="none" stroke="#99A1AF" stroke-width="2" stroke-linecap="round" stroke-linejoin="round" stroke-miterlimit="10" x1="172.902" y1="93.891" x2="172.902" y2="84.478"/>
	
		<line fill="none" stroke="#99A1AF" stroke-width="2" stroke-linecap="round" stroke-linejoin="round" stroke-miterlimit="10" x1="172.902" y1="52.184" x2="172.902" y2="42.771"/>
	
		<line fill="none" stroke="#99A1AF" stroke-width="2" stroke-linecap="round" stroke-linejoin="round" stroke-miterlimit="10" x1="150.768" y1="81.11" x2="158.919" y2="76.403"/>
	
		<line fill="none" stroke="#99A1AF" stroke-width="2" stroke-linecap="round" stroke-linejoin="round" stroke-miterlimit="10" x1="186.887" y1="60.256" x2="195.039" y2="55.55"/>
	
		<line fill="none" stroke="#99A1AF" stroke-width="2" stroke-linecap="round" stroke-linejoin="round" stroke-miterlimit="10" x1="150.768" y1="55.55" x2="158.919" y2="60.257"/>
	
		<line fill="none" stroke="#99A1AF" stroke-width="2" stroke-linecap="round" stroke-linejoin="round" stroke-miterlimit="10" x1="186.887" y1="76.404" x2="195.039" y2="81.111"/>
</g>
<g id="Layer_9">
	<g>
		<path fill="#FFFFFF" d="M249.934,229.486l54.518-64.364c2.844-3.357,7.52-3.376,10.391-0.042l55.538,64.503"/>
		<path fill="none" stroke="#515F70" stroke-width="2" stroke-linecap="round" stroke-linejoin="round" stroke-miterlimit="10" d="
			M249.934,229.486l54.518-64.364c2.844-3.357,7.52-3.376,10.391-0.042l55.538,64.503"/>
	</g>
	<g>
		<path fill="none" stroke="#515F70" stroke-width="2" stroke-linecap="round" stroke-linejoin="round" stroke-miterlimit="10" d="
			M293.213,178.391l7.374,7.141c0.79,0.765,2.101,0.783,2.911,0.041l6.371-5.831c0.811-0.743,2.188-0.801,3.058-0.128l5.867,4.528
			c0.87,0.672,2.285,0.659,3.144-0.028l5.498-4.405"/>
	</g>
	<path fill="#FFFFFF" stroke="#515F70" stroke-linecap="round" stroke-linejoin="round" stroke-miterlimit="10" d="M158.068,184.94
		c0,0,4.879,10.918,5.373,21.924c0.496,11.006-21.786,7.045-21.786,7.045s0.486-17.814,6.103-29.953
		C153.373,171.82,155.5,183.536,158.068,184.94z"/>
	<path fill="#D3D3D3" d="M151.566,186.573c0,0-3.529,11.05-0.889,22.164l-8.693,1.32c0,0,1.809-19.146,6.131-26.85
		C148.115,183.208,150.804,186.142,151.566,186.573z"/>
	<path fill="none" stroke="#1C81C3" stroke-miterlimit="10" d="M142.952,197.375"/>
	<path fill="none" stroke="#515F70" stroke-linecap="round" stroke-linejoin="round" stroke-miterlimit="10" d="M158.068,184.94
		c0,0,4.879,10.918,5.373,21.924c0.496,11.006-21.786,7.045-21.786,7.045s0.486-17.814,6.103-29.953
		C153.373,171.82,155.5,183.536,158.068,184.94z"/>
	<g>
		<path fill="#50A7E2" d="M47.457,234.36c-1.895,0-3.436-1.542-3.436-3.438v-7.346c0-1.957,1.584-3.719,3.53-3.927l136.229-14.499
			c0.138-0.015,0.27-0.021,0.396-0.021c0.703,0,1.235,0.225,1.498,0.634c0.293,0.456,0.261,1.13-0.09,1.896l-9.764,21.33
			c-0.83,1.815-3.22,3.376-5.218,3.408L47.457,234.36z"/>
		<g>
			<path fill="#515F70" d="M184.177,205.63c0.306,0,0.851,0.053,1.077,0.404c0.195,0.304,0.15,0.82-0.123,1.417l-9.764,21.33
				c-0.76,1.66-2.945,3.087-4.771,3.116L47.457,233.86c-1.619,0-2.936-1.318-2.936-2.938v-7.346c0-1.681,1.412-3.251,3.084-3.43
				l136.229-14.499C183.953,205.636,184.066,205.63,184.177,205.63 M184.177,204.63c-0.144,0-0.294,0.008-0.449,0.024
				L47.499,219.153c-2.188,0.233-3.978,2.224-3.978,4.424v7.346c0,2.179,1.765,3.938,3.936,3.938c0.021,0,0.043-0.001,0.064-0.001
				l123.09-1.962c2.2-0.035,4.75-1.7,5.665-3.7l9.764-21.33C186.891,206.01,186.053,204.63,184.177,204.63L184.177,204.63z"/>
		</g>
	</g>
	<g>
		<path fill="#1C81C3" d="M176.466,205.428c2.188-0.233,3.2,1.199,2.249,3.184l-9.912,20.674c-0.951,1.983-3.528,3.636-5.729,3.672
			l-115.553,1.9c-2.2,0.036-4-1.734-4-3.935v-7.346c0-2.2,1.79-4.19,3.978-4.423L176.466,205.428z"/>
	</g>
	<g>
		<g>
			<path fill="#515F70" d="M184.178,206.63c0.072,0,0.132,0.004,0.18,0.01c-0.02,0.095-0.059,0.228-0.136,0.396l-9.765,21.33
				c-0.596,1.303-2.443,2.51-3.877,2.532L47.457,232.86c-1.067,0-1.936-0.869-1.936-1.938v-7.346c0-1.173,1.023-2.311,2.189-2.435
				l136.229-14.5C184.021,206.634,184.102,206.63,184.178,206.63 M184.177,204.63c-0.144,0-0.294,0.008-0.449,0.024L47.499,219.153
				c-2.188,0.233-3.978,2.224-3.978,4.424v7.346c0,2.179,1.765,3.938,3.936,3.938c0.021,0,0.043-0.001,0.064-0.001l123.09-1.962
				c2.2-0.035,4.75-1.7,5.665-3.7l9.764-21.33C186.891,206.01,186.053,204.63,184.177,204.63L184.177,204.63z"/>
		</g>
	</g>
	
		<line fill="none" stroke="#515F70" stroke-width="2" stroke-linecap="round" stroke-linejoin="round" stroke-miterlimit="10" x1="107.979" y1="212.551" x2="107.979" y2="68.33"/>
	<polygon fill="#FFFFFF" points="172.354,236.797 179.342,223.486 167.529,232.183 154.977,223.486 147.381,224.858 
		141.655,230.877 138.682,231.86 133.01,228.394 125.826,223.486 118.045,226.834 113.773,230.646 106.63,230.372 97.912,223.708 
		91.862,224.312 86.609,229.859 81.077,231.349 74.357,225.977 68.26,223.486 64.343,225.147 59.413,229.985 52.211,230.885 
		44.332,224.486 40.312,229.213 44.713,239.672 	"/>
	
		<line fill="none" stroke="#515F70" stroke-width="2" stroke-linecap="round" stroke-linejoin="round" stroke-miterlimit="10" x1="173.407" y1="206.864" x2="210.699" y2="202.903"/>
	<path fill="none" stroke="#515F70" stroke-width="2" stroke-linecap="round" stroke-linejoin="round" stroke-miterlimit="10" d="
		M118.264,227.943c2.709-4.464,7.563-4.457,7.563-4.457c3.743,0.211,6.384,3.932,6.384,3.932c3.192,4.361,6.934,3.9,6.934,3.9
		c3.631,0.447,6.052-3.916,6.052-3.916c1.65-4.019,7.262-3.906,7.262-3.906c3.963-0.22,6.934,3.412,6.934,3.412
		c3.63,4.841,7.261,4.398,7.261,4.398c4.374,0.524,7.594-3.894,7.594-3.894s1.911-3.927,7.134-3.927"/>
	<path fill="none" stroke="#515F70" stroke-width="2" stroke-linecap="round" stroke-linejoin="round" stroke-miterlimit="10" d="
		M173.779,227.943c2.711-4.464,7.565-4.457,7.565-4.457c3.739,0.211,6.382,3.932,6.382,3.932c1.098,1.499,1.258,2.146,1.918,3.932"
		/>
	<path fill="none" stroke="#515F70" stroke-width="2" stroke-linecap="round" stroke-linejoin="round" stroke-miterlimit="10" d="
		M61.955,242.953c2.709-4.465,7.563-4.456,7.563-4.456c3.744,0.21,6.385,3.932,6.385,3.932c3.191,4.362,6.933,3.898,6.933,3.898
		c3.631,0.449,6.052-3.915,6.052-3.915c1.65-4.019,7.262-3.904,7.262-3.904c3.963-0.223,6.934,3.411,6.934,3.411
		c3.631,4.842,7.262,4.398,7.262,4.398c4.373,0.525,7.593-3.892,7.593-3.892s1.911-3.929,7.134-3.929"/>
	<path fill="none" stroke="#515F70" stroke-width="2" stroke-linecap="round" stroke-linejoin="round" stroke-miterlimit="10" d="
		M117.471,242.953c2.711-4.465,7.565-4.456,7.565-4.456c3.741,0.21,6.383,3.932,6.383,3.932c3.191,4.362,6.934,3.898,6.934,3.898
		c3.63,0.449,6.051-3.915,6.051-3.915c1.65-4.019,7.262-3.904,7.262-3.904c0.831-0.047,1.62,0.077,2.349,0.302"/>
	<path fill="none" stroke="#515F70" stroke-width="2" stroke-linecap="round" stroke-linejoin="round" stroke-miterlimit="10" d="
		M6.188,227.943c2.71-4.464,7.563-4.457,7.563-4.457c3.742,0.211,6.384,3.932,6.384,3.932c3.192,4.361,6.933,3.9,6.933,3.9
		c3.631,0.447,6.051-3.916,6.051-3.916c1.65-4.019,7.262-3.906,7.262-3.906c3.963-0.22,6.934,3.412,6.934,3.412
		c3.631,4.841,7.262,4.398,7.262,4.398c4.375,0.524,7.594-3.894,7.594-3.894s1.912-3.927,7.133-3.927"/>
	<path fill="none" stroke="#515F70" stroke-width="2" stroke-linecap="round" stroke-linejoin="round" stroke-miterlimit="10" d="
		M61.705,227.943c2.71-4.464,7.564-4.457,7.564-4.457c3.74,0.211,6.383,3.932,6.383,3.932c3.19,4.361,6.934,3.9,6.934,3.9
		c3.631,0.447,6.051-3.916,6.051-3.916c1.65-4.019,7.262-3.906,7.262-3.906c3.961-0.22,6.932,3.412,6.932,3.412
		c3.631,4.841,7.264,4.398,7.264,4.398c4.373,0.524,7.592-3.894,7.592-3.894s1.912-3.927,7.134-3.927"/>
	
		<polygon fill="#FFFFFF" stroke="#515F70" stroke-width="2" stroke-linecap="round" stroke-linejoin="round" stroke-miterlimit="10" points="
		124.819,193.111 107.982,87.146 40.312,205.986 	"/>
	
		<circle fill="#1C81C3" stroke="#515F70" stroke-width="2" stroke-linecap="round" stroke-linejoin="round" stroke-miterlimit="10" cx="107.979" cy="68.33" r="4.616"/>
	<g>
		<path fill="#FFFFFF" d="M151.766,184.703c-1.96-0.017-3.719-1.616-3.922-3.565l-0.572-5.486c-0.199-1.92,1.199-3.645,3.118-3.845
			l5.258-0.549c0.122-0.013,0.243-0.019,0.363-0.019c1.769,0,3.298,1.378,3.481,3.137l0.729,6.981
			c0.095,0.91-0.17,1.763-0.746,2.402c-0.575,0.639-1.395,0.99-2.307,0.99L151.766,184.703z"/>
		<g>
			<path fill="#515F70" d="M156.01,171.74c1.517,0,2.828,1.181,2.984,2.689l0.729,6.981c0.08,0.767-0.14,1.482-0.619,2.015
				c-0.48,0.532-1.167,0.825-1.962,0.825l-5.371-0.047c-1.685-0.015-3.255-1.442-3.429-3.117l-0.572-5.485
				c-0.172-1.646,1.027-3.124,2.672-3.295l5.258-0.549C155.804,171.746,155.908,171.74,156.01,171.74 M156.01,170.74
				c-0.137,0-0.275,0.007-0.414,0.021l-5.258,0.549c-2.188,0.228-3.791,2.205-3.563,4.394l0.572,5.486
				c0.228,2.188,2.216,3.994,4.415,4.013l5.371,0.047c0.012,0,0.023,0,0.035,0c2.182,0,3.777-1.768,3.55-3.944l-0.729-6.981
				C159.775,172.276,158.027,170.74,156.01,170.74L156.01,170.74z"/>
		</g>
	</g>
	<g>
		<polygon fill="#50A7E2" points="159.895,177.96 159.785,175.73 185.639,172.07 185.93,178.005 		"/>
		<g>
			<path fill="#515F70" d="M185.166,172.642l0.238,4.862l-25.033-0.043l-0.064-1.3L185.166,172.642 M186.111,171.499l-26.848,3.8
				l0.154,3.161l27.037,0.046L186.111,171.499L186.111,171.499z"/>
		</g>
	</g>
	<g>
		<polygon fill="#1C81C3" points="186.455,178.506 159.418,178.459 159.35,177.043 186.242,174.197 		"/>
	</g>
	<g>
		<g>
			<path fill="#515F70" d="M185.166,172.642l0.238,4.862l-25.033-0.043l-0.064-1.3L185.166,172.642 M186.111,171.499l-26.848,3.8
				l0.154,3.161l27.037,0.046L186.111,171.499L186.111,171.499z"/>
		</g>
	</g>
	<path fill="#FFFFFF" stroke="#515F70" stroke-linecap="round" stroke-linejoin="round" stroke-miterlimit="10" d="M147.35,179.123
		c0,0-0.402-1.801-0.139-3.177c0.266-1.377,2.904-2.036,2.904-2.036l0.982,5.581l9.126,1.571l0.916,12.627
		C161.14,193.689,149.99,188.697,147.35,179.123z"/>
	<g>
		<path fill="#FFFFFF" d="M147.622,174.754c-0.677,0-1.272-0.455-1.45-1.105l-0.607-2.238c-0.104-0.385-0.053-0.789,0.147-1.138
			c0.199-0.35,0.521-0.6,0.906-0.704l10.526-2.865c0.128-0.035,0.26-0.052,0.392-0.052c0.677,0,1.272,0.455,1.45,1.105l0.607,2.238
			c0.104,0.385,0.053,0.789-0.147,1.138c-0.199,0.349-0.521,0.599-0.906,0.704l-10.526,2.865
			C147.886,174.737,147.754,174.754,147.622,174.754z"/>
		<g>
			<path fill="#515F70" d="M157.535,167.152c0.453,0,0.851,0.303,0.969,0.736l0.607,2.24c0.07,0.255,0.035,0.525-0.1,0.758
				c-0.133,0.233-0.348,0.4-0.603,0.47l-10.527,2.865c-0.085,0.023-0.173,0.035-0.259,0.035c-0.453,0-0.851-0.303-0.969-0.736
				l-0.607-2.239c-0.07-0.255-0.035-0.525,0.1-0.758c0.133-0.233,0.348-0.4,0.603-0.47l10.527-2.865
				C157.361,167.164,157.449,167.152,157.535,167.152 M157.535,166.152c-0.172,0-0.348,0.022-0.521,0.07l-10.527,2.865
				c-1.062,0.289-1.693,1.394-1.404,2.455l0.607,2.238c0.242,0.887,1.053,1.474,1.934,1.474c0.172,0,0.348-0.022,0.521-0.07
				l10.527-2.865c1.062-0.289,1.693-1.394,1.404-2.455l-0.607-2.239C159.227,166.739,158.416,166.152,157.535,166.152
				L157.535,166.152z"/>
		</g>
	</g>
	<g>
		<path fill="#1C81C3" d="M146.248,174.065c0.227,0.838,1.281,1.288,2.343,0.999l9.636-2.622c1.062-0.289,1.743-1.211,1.515-2.05
			s-1.283-1.288-2.345-0.999l-9.633,2.622C146.702,172.304,146.02,173.227,146.248,174.065z"/>
	</g>
	<g>
		<g>
			<path fill="#515F70" d="M157.535,167.152c0.453,0,0.851,0.303,0.969,0.736l0.607,2.24c0.07,0.255,0.035,0.525-0.1,0.758
				c-0.133,0.233-0.348,0.4-0.603,0.47l-10.527,2.865c-0.085,0.023-0.173,0.035-0.259,0.035c-0.453,0-0.851-0.303-0.969-0.736
				l-0.607-2.239c-0.07-0.255-0.035-0.525,0.1-0.758c0.133-0.233,0.348-0.4,0.603-0.47l10.527-2.865
				C157.361,167.164,157.449,167.152,157.535,167.152 M157.535,166.152c-0.172,0-0.348,0.022-0.521,0.07l-10.527,2.865
				c-1.062,0.289-1.693,1.394-1.404,2.455l0.607,2.238c0.242,0.887,1.053,1.474,1.934,1.474c0.172,0,0.348-0.022,0.521-0.07
				l10.527-2.865c1.062-0.289,1.693-1.394,1.404-2.455l-0.607-2.239C159.227,166.739,158.416,166.152,157.535,166.152
				L157.535,166.152z"/>
		</g>
	</g>
	<g>
		<path fill="#FFFFFF" d="M186.261,179.209c-0.784,0-1.441-0.613-1.496-1.396l-0.367-5.25c-0.058-0.825,0.567-1.544,1.393-1.602
			l2.314-0.162l0.105-0.004c0.783,0,1.44,0.613,1.496,1.396l0.367,5.25c0.028,0.397-0.101,0.783-0.364,1.087
			c-0.265,0.304-0.629,0.487-1.026,0.514l-2.317,0.162L186.261,179.209z"/>
		<g>
			<path fill="#515F70" d="M188.21,171.296c0.522,0,0.96,0.409,0.997,0.93l0.367,5.252c0.02,0.264-0.067,0.521-0.243,0.723
				c-0.177,0.203-0.419,0.325-0.683,0.343l-2.318,0.162l-0.069,0.002c-0.522,0-0.961-0.409-0.997-0.93l-0.367-5.25
				c-0.039-0.55,0.378-1.03,0.928-1.068l2.315-0.162L188.21,171.296 M188.21,170.296c-0.047,0-0.093,0.001-0.141,0.005l-2.314,0.162
				c-1.097,0.077-1.933,1.038-1.856,2.135l0.367,5.25c0.074,1.05,0.957,1.86,1.995,1.86c0.046,0,0.093-0.001,0.14-0.005l2.317-0.162
				c1.097-0.077,1.933-1.038,1.854-2.135l-0.367-5.251C190.131,171.106,189.247,170.296,188.21,170.296L188.21,170.296z"/>
		</g>
	</g>
	<path fill="#D3D3D3" d="M147.345,175.589c0,0-0.653,6.483,4.014,10.744c0,0,3.542,4.097,5.895,5.086l3.136,0.785
		c0,0-6.271-4.416-6.644-11.884l-2.647-0.829l-1.025-5.278C150.072,174.213,147.797,174.366,147.345,175.589z"/>
	<path fill="none" stroke="#515F70" stroke-linecap="round" stroke-linejoin="round" stroke-miterlimit="10" d="M147.35,179.123
		c0,0-0.402-1.801-0.139-3.177c0.266-1.377,2.904-2.036,2.904-2.036l0.982,5.581l9.126,1.571l0.916,12.627
		C161.14,193.689,149.99,188.697,147.35,179.123z"/>
	<path fill="#515F70" d="M155.92,177.049c0,0.423,0.343,0.766,0.766,0.766c0.426,0,0.766-0.343,0.766-0.766s-0.34-0.767-0.766-0.767
		C156.263,176.283,155.92,176.626,155.92,177.049z"/>
	<path fill="none" stroke="#515F70" stroke-linecap="round" stroke-miterlimit="10" d="M157.747,175.468c0,0-1.216-0.96-2.145,0.121
		"/>
	<path fill="#FFFFFF" stroke="#515F70" stroke-linecap="round" stroke-linejoin="round" stroke-miterlimit="10" d="M155.603,193.354
		c18.641,1.218,19.372-13.674,19.372-13.674l-4.5-0.764c-1.74,10.437-14.872,12.089-14.872,12.089"/>
	<path fill="#D3D3D3" d="M172.563,180.05c0,0,1.816,0.406,2.412-0.405c0,0-1.258,15.043-19.785,13.78v-0.933
		C155.189,192.493,170.678,192.847,172.563,180.05z"/>
	<path fill="none" stroke="#515F70" stroke-linecap="round" stroke-linejoin="round" stroke-miterlimit="10" d="M155.603,193.354
		c18.641,1.218,19.372-13.674,19.372-13.674l-4.5-0.764c-1.74,10.437-14.872,12.089-14.872,12.089"/>
	
		<circle fill="#FFFFFF" stroke="#515F70" stroke-linecap="round" stroke-linejoin="round" stroke-miterlimit="10" cx="173.407" cy="176.771" r="3.279"/>
	<polygon fill="#D3D3D3" points="185.498,178.917 189.236,178.809 189.48,174.332 184.742,174.596 	"/>
	<g>
		<g>
			<path fill="#515F70" d="M188.21,171.296c0.522,0,0.96,0.409,0.997,0.93l0.367,5.252c0.02,0.264-0.067,0.521-0.243,0.723
				c-0.177,0.203-0.419,0.325-0.683,0.343l-2.318,0.162l-0.069,0.002c-0.522,0-0.961-0.409-0.997-0.93l-0.367-5.25
				c-0.039-0.55,0.378-1.03,0.928-1.068l2.315-0.162L188.21,171.296 M188.21,170.296c-0.047,0-0.093,0.001-0.141,0.005l-2.314,0.162
				c-1.097,0.077-1.933,1.038-1.856,2.135l0.367,5.25c0.074,1.05,0.957,1.86,1.995,1.86c0.046,0,0.093-0.001,0.14-0.005l2.317-0.162
				c1.097-0.077,1.933-1.038,1.854-2.135l-0.367-5.251C190.131,171.106,189.247,170.296,188.21,170.296L188.21,170.296z"/>
		</g>
	</g>
	
		<polygon fill="none" stroke="#515F70" stroke-width="2" stroke-linecap="round" stroke-linejoin="round" stroke-miterlimit="10" points="
		124.819,193.111 107.982,87.146 40.312,205.986 	"/>
	<g>
		<path fill="#D3D3D3" d="M297.318,154.075c2.201-4.575,5.742-5.618,5.893-5.661l0.256-0.038l1.801-0.041
			c1.457-0.032,2.619-1.166,2.588-2.526l-0.016-0.797c-0.732-0.841-1.283-1.753-1.641-2.724l-0.072-0.199
			c-1.121-0.904-1.426-2.411-0.758-3.603c0.016-0.038,0.068-0.116,0.125-0.201l-0.029-0.965c-0.021-0.646-0.035-1.291-0.037-1.933
			c0.025-1.234,0.358-2.323,0.957-3.18c0.713-1.042,1.953-1.292,3.344-1.651c0.68-0.177,1.291,0.387,2.021,0.356l1.625,2.784
			l0.445,3.779l0.059,2.557l-1.855,3.119l0.279,2.869l3.848,0.764l4.14,2.342l1.858,2.717l-5.45,4.883l-9.911,1.604l-8.076-2.261
			L297.318,154.075z"/>
	</g>
	<g>
		<g>
			<g>
				<path fill="#515F70" d="M308.532,123.312c9.265,0,16.973,7.54,17.181,16.807c0.21,9.478-7.328,17.361-16.803,17.573
					c-0.133,0.003-0.264,0.004-0.395,0.004c-9.264,0-16.969-7.54-17.178-16.808c-0.211-9.477,7.326-17.36,16.803-17.572
					C308.271,123.313,308.402,123.312,308.532,123.312 M308.532,121.812c-0.142,0-0.282,0.002-0.425,0.005
					c-10.324,0.231-18.499,8.783-18.269,19.105c0.228,10.182,8.546,18.274,18.677,18.274c0.143,0,0.285-0.001,0.428-0.005
					c10.321-0.231,18.498-8.781,18.27-19.105C326.984,129.904,318.662,121.812,308.532,121.812L308.532,121.812z"/>
			</g>
		</g>
	</g>
	<g>
		<path fill="none" stroke="#515F70" stroke-width="1.5" stroke-linejoin="round" stroke-miterlimit="10" d="M295.418,152.441
			c1.918-4.285,5.018-5.256,5.149-5.298l0.221-0.035l1.577-0.033c1.273-0.03,2.287-1.09,2.26-2.365l-0.019-0.748
			c-0.638-0.79-1.124-1.646-1.438-2.556l-0.062-0.186c-0.981-0.85-1.249-2.263-0.669-3.379c0.016-0.036,0.06-0.109,0.107-0.188
			l-0.025-0.902c-0.016-0.606-0.027-1.213-0.037-1.813c0.025-1.155,0.314-2.176,0.838-2.98c0.619-0.974,1.674-1.729,2.888-2.064
			c1.188-0.33,2.502-0.389,3.79-0.173c1.158,0.195,2.154,0.686,2.883,1.418c0.858,0.869,1.371,2.158,1.434,3.629
			c0.02,0.661,0.036,1.311,0.049,1.962l0.013,0.666c0.028,0.033,0.047,0.069,0.063,0.1c0.658,0.999,0.523,2.458-0.338,3.355
			l-0.136,0.13c-0.317,1.098-0.776,2.029-1.371,2.832l0.016,0.717c0.028,1.274,1.092,2.288,2.362,2.261l1.801-0.013
			c0.133,0.035,3.27,0.869,5.375,5.064"/>
	</g>
	<path display="none" fill="#D3D3D3" d="M324.488,153.963c0,0-42.176,13.917-41.362,52.083h-11.884
		C271.242,206.047,268.645,164.678,324.488,153.963z"/>
	
		<path display="none" fill="none" stroke="#515F70" stroke-width="2" stroke-linecap="round" stroke-linejoin="round" stroke-miterlimit="10" d="
		M271.242,206.047c0-29.19,28.742-52.854,64.196-52.854s64.196,23.664,64.196,52.854"/>
	
		<line fill="none" stroke="#515F70" stroke-width="2" stroke-linecap="round" stroke-linejoin="round" stroke-miterlimit="10" x1="206.565" y1="229.584" x2="227.852" y2="229.584"/>
	<g>
		<path fill="#FFFFFF" d="M295.777,229.477l60.453-71.372c2.844-3.357,7.52-3.376,10.391-0.042l61.58,71.521"/>
		<path fill="none" stroke="#515F70" stroke-width="2" stroke-linecap="round" stroke-linejoin="round" stroke-miterlimit="10" d="
			M295.777,229.477l60.453-71.372c2.844-3.357,7.52-3.376,10.391-0.042l61.58,71.521"/>
	</g>
	<g>
		<path fill="none" stroke="#515F70" stroke-width="2" stroke-linecap="round" stroke-linejoin="round" stroke-miterlimit="10" d="
			M343.359,173.3l8.25,7.989c0.791,0.765,2.102,0.783,2.912,0.041l7.297-6.679c0.813-0.743,2.188-0.801,3.059-0.128l6.765,5.221
			c0.87,0.672,2.286,0.66,3.144-0.028l6.201-4.967"/>
	</g>
	<g>
		<g>
			<g>
				<path fill="#D3D3D3" d="M361.92,116.204c-6.461,0.229-11.52,6.015-11.278,12.9c0.241,6.882,10.97,17.413,10.97,17.413
					c0.785,0.771,2.023,0.727,2.753-0.097c0,0,9.96-11.255,9.72-18.142C373.84,121.394,368.387,115.977,361.92,116.204z"/>
			</g>
		</g>
	</g>
	<g>
		<g>
			<g>
				<path fill="#515F70" d="M360.913,112.959c7.29,0,13.206,5.865,13.469,13.352c0.228,6.419-8.854,17.75-12.372,21.574
					c-0.123,0.133-0.272,0.153-0.351,0.153c-0.086,0-0.212-0.022-0.325-0.129c-3.778-3.566-13.635-14.227-13.858-20.651
					c-0.132-3.691,1.15-7.213,3.611-9.918c2.452-2.694,5.774-4.247,9.356-4.373C360.602,112.962,360.757,112.959,360.913,112.959
					 M360.913,111.459c-0.174,0-0.347,0.003-0.522,0.009c-8.247,0.29-14.717,7.396-14.414,15.844
					c0.295,8.445,14.328,21.688,14.328,21.688c0.381,0.36,0.868,0.539,1.354,0.539c0.532,0,1.064-0.214,1.454-0.638
					c0,0,13.066-14.193,12.768-22.643C375.59,117.993,368.926,111.459,360.913,111.459L360.913,111.459z"/>
			</g>
		</g>
	</g>
	<path fill="#FFFFFF" stroke="#515F70" stroke-width="1.5" stroke-miterlimit="10" d="M365.668,126.254
		c0.091,2.624-1.961,4.826-4.585,4.919c-2.624,0.091-4.824-1.958-4.919-4.584c-0.095-2.627,1.96-4.827,4.586-4.918
		C363.375,121.578,365.576,123.631,365.668,126.254z"/>
	
		<line fill="none" stroke="#515F70" stroke-width="2" stroke-linecap="round" stroke-linejoin="round" stroke-miterlimit="10" x1="438.074" y1="229.584" x2="236.548" y2="229.584"/>
	<path fill="#D3D3D3" d="M422.883,175.146c0,0-14.063-1.233-24.944,5.112C397.938,180.259,405.189,169.892,422.883,175.146z"/>
	<path fill="#D3D3D3" d="M422.977,174.164c0,0-3.053-13.783-12.376-22.251C410.601,151.912,422.668,155.709,422.977,174.164z"/>
	<path fill="#D3D3D3" d="M423.043,175.087c0,0,12.201,7.093,17.442,18.546C440.485,193.633,440.438,180.058,423.043,175.087z"/>
	<path fill="#D3D3D3" d="M422.824,175.127c0,0,13.33-4.633,25.433-1.142C448.257,173.986,437.932,165.173,422.824,175.127z"/>
	
		<path fill="#D3D3D3" stroke="#515F70" stroke-width="2" stroke-linecap="round" stroke-linejoin="round" stroke-miterlimit="10" d="
		M403.822,229.373c0,0-4.723-29.874,16.959-54.894l2.602,2.041c0,0-21.158,29.335-11.43,51.929
		C411.953,228.449,406.738,229.669,403.822,229.373z"/>
	<path fill="#FFFFFF" d="M406.885,228.767c0,0-7.291-26.191,15.098-53.873l1.4,1.626c0,0-21.158,29.335-11.43,51.929
		C411.953,228.449,408.865,229.209,406.885,228.767z"/>
	<path fill="none" stroke="#515F70" stroke-width="2" stroke-linecap="round" stroke-linejoin="round" stroke-miterlimit="10" d="
		M422.753,175.194c0,0,12.202,7.092,17.44,18.544C440.193,193.739,448.61,175.263,422.753,175.194z"/>
	<path fill="none" stroke="#515F70" stroke-width="2" stroke-linecap="round" stroke-linejoin="round" stroke-miterlimit="10" d="
		M422.883,175.146c0,0-14.063-1.233-24.944,5.112C397.938,180.259,401.707,160.308,422.883,175.146z"/>
	<path fill="none" stroke="#515F70" stroke-width="2" stroke-linecap="round" stroke-linejoin="round" stroke-miterlimit="10" d="
		M422.275,175.367c0,0-2.398-13.909-11.313-22.808C410.963,152.56,431.214,151.102,422.275,175.367z"/>
	<path fill="none" stroke="#515F70" stroke-width="2" stroke-linecap="round" stroke-linejoin="round" stroke-miterlimit="10" d="
		M422.893,175.179c0,0,13.393-4.463,25.449-0.819C448.342,174.36,440.048,155.83,422.893,175.179z"/>
	<path fill="none" stroke="#515F70" stroke-width="2" stroke-linecap="round" stroke-linejoin="round" stroke-miterlimit="10" d="
		M403.822,229.373c0,0-4.723-29.874,16.959-54.894l2.602,2.041c0,0-21.036,29.968-11.308,52.562
		C412.075,229.082,406.839,229.037,403.822,229.373z"/>
</g>
</svg>
