<?xml version="1.0" encoding="utf-8"?>
<!-- Generator: Adobe Illustrator 16.0.0, SVG Export Plug-In . SVG Version: 6.00 Build 0)  -->
<!DOCTYPE svg PUBLIC "-//W3C//DTD SVG 1.1//EN" "http://www.w3.org/Graphics/SVG/1.1/DTD/svg11.dtd">
<svg version="1.1" xmlns="http://www.w3.org/2000/svg" xmlns:xlink="http://www.w3.org/1999/xlink" x="0px" y="0px" width="456.1px"
	 height="299px" viewBox="0 0 456.1 299" enable-background="new 0 0 456.1 299" xml:space="preserve">
<g id="Layer_1" display="none">
</g>
<g id="Layer_2">
</g>
<g id="frame">
</g>
<g id="folder">
</g>
<g id="Layer_5">
</g>
<g id="Layer_6">
</g>
<g id="Layer_7">
</g>
<g id="Layer_8">
	<g>
		<path fill="#D3D3D3" d="M308.398,92.963c0.238,0.316-1.964,1.818-4.894,3.337l-3.329,1.727c-2.93,1.52-7.437,1.079-10.016-0.98
			l-3.84-3.063c-2.579-2.059-6.713-1.955-9.186,0.23l-9.194,8.124c-2.473,2.186-6.544,2.214-9.048,0.064l-4.983-4.28
			c-2.503-2.15-3.88-4.602-3.06-5.449s3.494,0.271,5.941,2.486l0.736,0.667c2.446,2.214,5.127,4.105,5.957,4.201
			c0.829,0.096,2.297-0.109,3.262-0.456c0.964-0.347,3.825-2.362,6.357-4.478l1.768-1.477c2.533-2.115,5.292-3.977,6.131-4.137
			s2.443-0.12,3.564,0.089s3.884,1.614,6.138,3.122c2.254,1.507,5.175,2.848,6.489,2.979c1.314,0.131,4.277-0.554,6.582-1.521
			C306.08,93.18,308.161,92.647,308.398,92.963z"/>
	</g>
	<g>
		<path fill="#D3D3D3" d="M138.037,112.652l-10.399,8.315c-2.577,2.061-6.789,2.052-9.358-0.019l-6.93-5.586
			c-2.569-2.071-6.91-2.256-9.646-0.411l-10.813,7.288c-2.736,1.845-7.107,1.698-9.714-0.326l-9.554-7.417
			c-2.606-2.024-3.756-4.721-2.555-5.995c1.202-1.273,4.111-0.421,6.464,1.892l3.342,3.286c2.353,2.313,5.974,4.377,8.045,4.586
			s6.005-1.129,8.741-2.974l4.242-2.859c2.736-1.845,6.693-3.146,8.794-2.892c2.101,0.254,6.104,1.899,8.897,3.657l3.365,2.116
			c2.793,1.757,7.331,1.778,10.085,0.047c2.754-1.731,5.74-3.713,6.637-4.405C137.681,110.957,137.681,110.957,138.037,112.652z"/>
	</g>
	<path display="none" fill="#D3D3D3" d="M175.815,46.563c0,0,6.815,0.406,5.097,8.906l1.938,0.865l-0.539-2.083l1.205-3.665
		l-1.205-3.168l-2.378-1.792l-3.271,0.25l-0.919-2.354l-1.228-3.756c0,0-5.698-8.671-16.073-3.703c0,0,12.537-1.992,16.531,9.75"/>
	<path display="none" fill="#1C79C3" d="M106.35,107.081L72.6,141.483c0,0,8.75,20.767,33.75,2.517c0,0,21.17-19,36.46,1.75
		c0,0,16.952,22.438,35.29-2c0,0,3.75-4.5,6-17l-31.879-28.604c0,0,7.254,8.936,0.963,14.604c0,0-6.334,5.5-16.334-7.5
		c0,0-7.375-15.221-15.125-0.75C121.725,104.5,112.475,126.287,106.35,107.081z"/>
	<path display="none" fill="#1C79C3" d="M264.021,96.931l-33.75,34.402c0,0,8.75,20.767,33.75,2.517c0,0,21.17-19,36.46,1.75
		c0,0,16.952,22.438,35.29-2c0,0,6.912-3.433,9.162-15.933L319.475,96.11c0,0,8.625,13.453-2.313,16.578
		c0,0-8.188,2.688-15.063-8.659c0,0-10.326-17.195-21-2.695C281.1,101.333,270.146,116.137,264.021,96.931z"/>
	<g>
		<path fill="none" stroke="#99A1AF" stroke-width="2" stroke-linecap="round" stroke-miterlimit="10" d="M29.615,150.075
			L95.77,81.809c2.297-2.37,6.196-2.518,8.665-0.328l157.121,139.303"/>
	</g>
	<g>
		<path fill="none" stroke="#99A1AF" stroke-width="2" stroke-linecap="round" stroke-miterlimit="10" d="M207.31,137.602
			l66.155-68.266c2.297-2.37,6.196-2.518,8.665-0.328l157.12,139.304"/>
	</g>
	<g>
		<path fill="#FFFFFF" d="M162.304,199.6c-1.654,0-3-1.346-3-3V85.637c0-1.654,1.346-3,3-3h63.827c1.654,0,3,1.346,3,3V196.6
			c0,1.654-1.346,3-3,3H162.304z"/>
		<g>
			<path fill="#515F70" d="M226.131,83.637c1.103,0,2,0.897,2,2V196.6c0,1.103-0.897,2-2,2h-63.827c-1.103,0-2-0.897-2-2V85.637
				c0-1.103,0.897-2,2-2H226.131 M226.131,81.637h-63.827c-2.2,0-4,1.8-4,4V196.6c0,2.2,1.8,4,4,4h63.827c2.2,0,4-1.8,4-4V85.637
				C230.131,83.437,228.331,81.637,226.131,81.637L226.131,81.637z"/>
		</g>
	</g>
	
		<line fill="none" stroke="#515F70" stroke-width="2" stroke-linecap="round" stroke-linejoin="round" stroke-miterlimit="10" x1="186.734" y1="87.81" x2="197.865" y2="87.81"/>
	<g>
		<path fill="#D3D3D3" d="M220.637,123.32c0.063,0.083-0.715,0.582-1.729,1.107c-1.013,0.526-2.626,0.33-3.585-0.435
			s-2.822-0.438-4.141,0.728c-1.318,1.166-3.233,1.401-4.255,0.524s-1.681-1.778-1.465-2.001c0.217-0.223,0.965,0.111,1.664,0.743
			c0.698,0.632,1.449,1.171,1.668,1.196c0.219,0.025,0.606-0.029,0.861-0.121s1.113-0.71,1.909-1.375
			c0.796-0.665,1.627-1.243,1.849-1.285c0.221-0.042,0.644-0.032,0.939,0.023c0.296,0.056,1.024,0.426,1.619,0.823
			c0.594,0.398,1.363,0.751,1.711,0.786c0.346,0.034,1.127-0.146,1.734-0.401C220.026,123.377,220.574,123.237,220.637,123.32z"/>
	</g>
	<circle fill="#515F70" cx="204.037" cy="87.81" r="1.964"/>
	<circle fill="#D3D3D3" stroke="#99A1AF" stroke-miterlimit="10" cx="195.357" cy="179.36" r="4.521"/>
	<g>
		<path fill="none" stroke="#99A1AF" stroke-linecap="round" stroke-miterlimit="10" d="M194.87,133.917l14.362-14.695
			c2.307-2.36,6.214-2.5,8.684-0.311l5.262,4.665"/>
	</g>
	<circle fill="#50A7E2" cx="224.219" cy="33.046" r="17.073"/>
	<circle fill="#50A7E2" cx="204.037" cy="107.108" r="4.164"/>
	<path fill="none" stroke="#99A1AF" stroke-width="2" stroke-linecap="round" stroke-linejoin="round" stroke-miterlimit="10" d="
		M303.839,59.191c0,0,5.27-2.115,9.755,2.567c0,0,2.567-5.407,7.85-4.061"/>
	<path fill="none" stroke="#99A1AF" stroke-width="2" stroke-linecap="round" stroke-linejoin="round" stroke-miterlimit="10" d="
		M268.316,42.46c0,0,6.822-2.738,12.631,3.324c0,0,3.322-7.001,10.16-5.258"/>
	<path fill="none" stroke="#99A1AF" stroke-width="2" stroke-linecap="round" stroke-miterlimit="10" d="M115.331,52.883
		c-0.296-0.937-0.456-1.935-0.456-2.97c0-5.447,4.417-9.863,9.865-9.863c0.682,0,1.346,0.068,1.986,0.2"/>
	<path fill="none" stroke="#99A1AF" stroke-width="2" stroke-linecap="round" stroke-miterlimit="10" d="M152.373,41.465
		c0.367-0.058,0.744-0.089,1.129-0.089c3.934,0,7.123,3.189,7.123,7.122c0,1.653-0.563,3.175-1.508,4.382"/>
	<path fill="none" stroke="#99A1AF" stroke-width="2" stroke-linecap="round" stroke-miterlimit="10" d="M126.777,40.253
		c0.568-6.533,6.053-11.658,12.733-11.658c7.06,0,12.782,5.722,12.782,12.781"/>
	
		<line fill="none" stroke="#99A1AF" stroke-width="2" stroke-linecap="round" stroke-miterlimit="10" x1="90.435" y1="52.88" x2="115.331" y2="52.88"/>
	
		<line fill="none" stroke="#99A1AF" stroke-width="2" stroke-linecap="round" stroke-miterlimit="10" x1="159.664" y1="52.88" x2="169.213" y2="52.88"/>
	<path fill="none" stroke="#99A1AF" stroke-linecap="round" stroke-miterlimit="10" d="M182.604,115.048
		c-0.056-0.174-0.085-0.359-0.085-0.552c0-1.013,0.819-1.833,1.833-1.833c0.127,0,0.25,0.013,0.369,0.037"/>
	<path fill="none" stroke="#99A1AF" stroke-linecap="round" stroke-miterlimit="10" d="M189.488,112.926
		c0.068-0.011,0.139-0.017,0.209-0.017c0.732,0,1.325,0.593,1.325,1.324c0,0.307-0.104,0.59-0.28,0.814"/>
	<path fill="none" stroke="#99A1AF" stroke-linecap="round" stroke-linejoin="round" stroke-miterlimit="10" d="M215.365,110.658
		c0,0,2.516-1.01,4.656,1.226c0,0,1.225-2.581,3.744-1.938"/>
	<path fill="none" stroke="#99A1AF" stroke-linecap="round" stroke-miterlimit="10" d="M184.73,112.7
		c0.105-1.214,1.125-2.167,2.367-2.167c1.313,0,2.376,1.063,2.376,2.375"/>
	
		<line fill="none" stroke="#99A1AF" stroke-linecap="round" stroke-miterlimit="10" x1="177.975" y1="115.048" x2="182.604" y2="115.048"/>
	
		<line fill="none" stroke="#99A1AF" stroke-linecap="round" stroke-miterlimit="10" x1="190.844" y1="115.048" x2="192.619" y2="115.048"/>
	<g>
		<path fill="#D3D3D3" d="M190.357,130.473L190.357,130.473c-2.354,1.881-5.316,2.583-6.586,1.561
			c-1.269-1.022-3.631-0.966-5.25,0.125c-1.619,1.091-4.157,1.041-5.642-0.111c-1.484-1.152-2.419-2.39-2.078-2.751
			s1.379,0.09,2.307,1.002s2.167,1.707,2.755,1.766c0.588,0.06,1.974-0.502,3.08-1.249s2.499-1.297,3.094-1.225
			c0.596,0.072,1.945,0.673,3,1.337c1.055,0.663,2.556,0.804,3.336,0.313c0.781-0.491,1.628-1.053,1.883-1.249
			C190.256,129.993,190.256,129.993,190.357,130.473z"/>
	</g>
	<g>
		<path fill="none" stroke="#99A1AF" stroke-linecap="round" stroke-miterlimit="10" d="M165.973,134.11l9.279-9.577
			c2.297-2.37,6.196-2.518,8.665-0.329l20.704,18.356"/>
	</g>
	<g>
		<path fill="none" stroke="#99A1AF" stroke-linecap="round" stroke-miterlimit="10" d="M220.776,122.97
			c0,0-0.745,0.313-1.657,0.695c-0.91,0.382-2.454,0.059-3.429-0.719c-0.975-0.778-2.87-0.444-4.211,0.741s-3.191,1.458-4.111,0.606
			s-1.673-1.548-1.673-1.548"/>
	</g>
	<g>
		<path fill="#515F70" d="M220.238,93.396c1.103,0,2,0.897,2,2v91.445c0,1.103-0.897,2-2,2h-52.043c-1.103,0-2-0.897-2-2V95.396
			c0-1.103,0.897-2,2-2H220.238 M220.238,91.396h-52.043c-2.2,0-4,1.8-4,4v91.445c0,2.2,1.8,4,4,4h52.043c2.2,0,4-1.8,4-4V95.396
			C224.238,93.196,222.438,91.396,220.238,91.396L220.238,91.396z"/>
	</g>
	
		<line fill="none" stroke="#515F70" stroke-width="2" stroke-linecap="round" stroke-linejoin="round" stroke-miterlimit="10" x1="450.1" y1="250.729" x2="121.27" y2="250.729"/>
	
		<line fill="none" stroke="#515F70" stroke-width="2" stroke-linecap="round" stroke-linejoin="round" stroke-miterlimit="10" x1="107.239" y1="250.729" x2="53.369" y2="250.729"/>
	<g>
		<path fill="#D3D3D3" d="M219.541,241.873c-1.654,0-3-1.346-3-3V125.104c0-1.654,1.346-3,3-3H405.51c1.654,0,3,1.346,3,3v113.769
			c0,1.654-1.346,3-3,3H219.541z"/>
		<g>
			<path fill="#515F70" d="M405.51,123.104c1.104,0,2,0.897,2,2v113.769c0,1.103-0.896,2-2,2H219.541c-1.103,0-2-0.897-2-2V125.104
				c0-1.103,0.897-2,2-2H405.51 M405.51,121.104H219.541c-2.2,0-4,1.8-4,4v113.769c0,2.2,1.8,4,4,4H405.51c2.2,0,4-1.8,4-4V125.104
				C409.51,122.904,407.71,121.104,405.51,121.104L405.51,121.104z"/>
		</g>
	</g>
	<g>
		<path fill="#D3D3D3" d="M209.252,250.852c-1.809,0-3.929-1.408-4.63-3.074l-1.619-3.85c-0.279-0.662-0.282-1.252-0.01-1.662
			c0.272-0.411,0.818-0.637,1.536-0.637h216.88c0.694,0,1.222,0.21,1.448,0.576c0.227,0.367,0.179,0.934-0.132,1.555l-2.033,4.066
			c-0.819,1.64-3.061,3.025-4.895,3.025H209.252z"/>
		<g>
			<path fill="#515F70" d="M421.409,242.629c0.335,0,0.522,0.067,0.591,0.106c0.004,0.079-0.019,0.276-0.169,0.577l-2.033,4.066
				c-0.646,1.294-2.554,2.473-4,2.473H209.252c-1.398,0-3.166-1.174-3.708-2.462l-1.62-3.851c-0.164-0.39-0.148-0.645-0.098-0.721
				s0.279-0.189,0.703-0.189H421.409 M421.409,240.629h-216.88c-2.2,0-3.302,1.659-2.448,3.687l1.619,3.85
				c0.854,2.027,3.352,3.687,5.552,3.687h206.546c2.2,0,4.806-1.61,5.789-3.578l2.033-4.066
				C424.604,242.239,423.609,240.629,421.409,240.629L421.409,240.629z"/>
		</g>
	</g>
	<g>
		<path fill="#BCBCBC" d="M420.322,249.046c1.512-1.543,0.948-2.806-1.252-2.806H206.869c-2.2,0-2.96,1.263-1.688,2.806
			s4.111,2.806,6.312,2.806h202.083C415.775,251.852,418.812,250.589,420.322,249.046z"/>
	</g>
	<g>
		<path fill="#FFFFFF" d="M226.087,234.896c-1.654,0-3-1.346-3-3v-95.999c0-1.654,1.346-3,3-3h172.876c1.654,0,3,1.346,3,3v95.999
			c0,1.654-1.346,3-3,3H226.087z"/>
		<path fill="#515F70" d="M398.963,133.898c1.104,0,2,0.897,2,2v95.999c0,1.103-0.896,2-2,2H226.087c-1.103,0-2-0.897-2-2v-95.999
			c0-1.103,0.897-2,2-2H398.963 M398.963,131.898H226.087c-2.2,0-4,1.8-4,4v95.999c0,2.2,1.8,4,4,4h172.876c2.2,0,4-1.8,4-4v-95.999
			C402.963,133.698,401.163,131.898,398.963,131.898L398.963,131.898z"/>
	</g>
	<circle fill="#515F70" cx="312.524" cy="127.698" r="1.964"/>
	<circle fill="#50A7E2" cx="319.721" cy="157.438" r="8.084"/>
	<path fill="none" stroke="#99A1AF" stroke-linecap="round" stroke-linejoin="round" stroke-miterlimit="10" d="M364.031,169.958
		c0,0,2.939-1.18,5.439,1.432c0,0,1.434-3.016,4.378-2.265"/>
	<path fill="none" stroke="#99A1AF" stroke-linecap="round" stroke-linejoin="round" stroke-miterlimit="10" d="M345.781,161.874
		c0,0,3.765-1.51,6.967,1.833c0,0,1.834-3.861,5.604-2.9"/>
	<path fill="none" stroke="#99A1AF" stroke-linecap="round" stroke-miterlimit="10" d="M275.988,171.893
		c-0.13-0.413-0.201-0.853-0.201-1.309c0-2.4,1.946-4.346,4.348-4.346c0.301,0,0.592,0.03,0.876,0.088"/>
	<path fill="none" stroke="#99A1AF" stroke-linecap="round" stroke-miterlimit="10" d="M292.313,166.861
		c0.162-0.025,0.328-0.039,0.498-0.039c1.732,0,3.139,1.406,3.139,3.139c0,0.728-0.248,1.399-0.664,1.931"/>
	<path fill="none" stroke="#99A1AF" stroke-linecap="round" stroke-miterlimit="10" d="M281.033,166.327
		c0.25-2.879,2.667-5.138,5.611-5.138c3.109,0,5.632,2.521,5.632,5.632"/>
	
		<line fill="none" stroke="#99A1AF" stroke-linecap="round" stroke-miterlimit="10" x1="265.018" y1="171.892" x2="275.988" y2="171.892"/>
	
		<line fill="none" stroke="#99A1AF" stroke-linecap="round" stroke-miterlimit="10" x1="295.525" y1="171.892" x2="299.733" y2="171.892"/>
	<rect x="160.549" y="136.669" fill="#FFFFFF" width="3.646" height="11.889"/>
	<rect x="224.238" y="104.589" fill="#FFFFFF" width="3.596" height="11.889"/>
	<g>
		<g>
			<path fill="#515F70" d="M421.409,242.629c0.335,0,0.522,0.067,0.591,0.106c0.004,0.079-0.019,0.276-0.169,0.577l-2.033,4.066
				c-0.646,1.294-2.554,2.473-4,2.473H209.252c-1.398,0-3.166-1.174-3.708-2.462l-1.62-3.851c-0.164-0.39-0.148-0.645-0.098-0.721
				s0.279-0.189,0.703-0.189H421.409 M421.409,240.629h-216.88c-2.2,0-3.302,1.659-2.448,3.687l1.619,3.85
				c0.854,2.027,3.352,3.687,5.552,3.687h206.546c2.2,0,4.806-1.61,5.789-3.578l2.033-4.066
				C424.604,242.239,423.609,240.629,421.409,240.629L421.409,240.629z"/>
		</g>
	</g>
	<g>
		<path fill="none" stroke="#99A1AF" stroke-width="2" stroke-linecap="round" stroke-miterlimit="10" d="M71.254,107.108
			l12.285,10.17c2.541,2.104,6.859,2.317,9.596,0.472l10.813-7.289c2.736-1.845,7.078-1.66,9.646,0.411l6.93,5.586
			c2.57,2.071,6.887,2.221,9.594,0.334l7.92-5.521"/>
	</g>
	<g>
		<path fill="none" stroke="#99A1AF" stroke-linecap="round" stroke-miterlimit="10" d="M171.016,128.88
			c0,0,1.055,0.873,2.344,1.939c1.289,1.066,3.639,1.066,5.221,0c1.582-1.067,3.892-1.122,5.132-0.122
			c1.24,0.999,3.056,1.259,4.033,0.576c0.978-0.682,1.778-1.24,1.778-1.24"/>
	</g>
	<g>
		<path fill="none" stroke="#99A1AF" stroke-width="2" stroke-linecap="round" stroke-miterlimit="10" d="M308.329,92.236
			l-6.824,2.865c-3.043,1.277-7.643,0.638-10.222-1.42l-3.84-3.063c-2.579-2.059-6.713-1.955-9.186,0.23l-9.195,8.125
			c-2.473,2.185-6.478,2.139-8.899-0.103l-8.075-7.473"/>
	</g>
	
		<line fill="none" stroke="#99A1AF" stroke-width="2" stroke-linecap="round" stroke-miterlimit="10" x1="9.6" y1="151.125" x2="79.463" y2="151.125"/>
	
		<line fill="none" stroke="#99A1AF" stroke-linecap="round" stroke-miterlimit="10" x1="230.973" y1="208.312" x2="256.671" y2="208.312"/>
	<g>
		<path fill="#D3D3D3" d="M287.764,196.518l-2.59,2.04c-2.592,2.042-6.294,2.274-8.227,0.516c-1.933-1.758-5.81-1.775-8.615-0.038
			l-0.598,0.37c-2.806,1.737-7.15,1.543-9.655-0.431s-4.077-4.087-3.494-4.695s2.339,0.17,3.901,1.73
			c1.563,1.56,3.658,2.924,4.654,3.032s3.291-0.528,5.1-1.414c1.809-0.885,4.243-1.557,5.41-1.492
			c1.166,0.064,3.515,0.801,5.219,1.639c1.705,0.837,4.188,0.848,5.52,0.024c1.332-0.824,2.775-1.767,3.209-2.097
			C287.598,195.701,287.598,195.701,287.764,196.518z"/>
	</g>
	<g>
		<path fill="none" stroke="#99A1AF" stroke-linecap="round" stroke-miterlimit="10" d="M241.178,208.312l23.77-24.431
			c2.301-2.365,6.2-2.505,8.664-0.31l38.025,33.863"/>
	</g>
	<g>
		<path fill="none" stroke="#99A1AF" stroke-linecap="round" stroke-miterlimit="10" d="M256.012,194.237
			c0,0,1.768,1.463,3.928,3.252s6.1,1.789,8.753,0s6.526-1.881,8.606-0.205s5.124,2.112,6.765,0.968
			c1.641-1.145,2.983-2.081,2.983-2.081"/>
	</g>
	<g>
		<path fill="#D3D3D3" d="M360.842,188.576c0.142,0.188-1.619,1.316-3.913,2.506s-5.945,0.748-8.114-0.984
			c-2.169-1.731-5.967-1.359-8.439,0.826l-1.859,1.643c-2.473,2.185-6.387,2.349-8.698,0.363c-2.312-1.985-3.802-4.022-3.312-4.528
			s2.184,0.251,3.764,1.682c1.581,1.431,3.279,2.648,3.773,2.706c0.496,0.058,1.371-0.065,1.946-0.272
			c0.575-0.208,2.549-1.446,4.386-2.753s3.761-2.439,4.275-2.516s1.43-0.035,2.034,0.094s2.212,0.79,3.572,1.47
			c1.36,0.68,3.115,1.3,3.899,1.377s2.551-0.331,3.927-0.908C359.459,188.706,360.7,188.388,360.842,188.576z"/>
	</g>
	<g>
		<path fill="none" stroke="#99A1AF" stroke-linecap="round" stroke-miterlimit="10" d="M304.609,211.036l33.59-34.333
			c2.307-2.358,6.232-2.517,8.723-0.352l42.947,37.341"/>
	</g>
	<g>
		<path fill="none" stroke="#99A1AF" stroke-linecap="round" stroke-miterlimit="10" d="M360.111,188.384
			c0,0-1.606,0.674-3.569,1.498s-5.287,0.127-7.387-1.549s-5.841-1.259-8.313,0.926l-1.514,1.337
			c-2.473,2.185-6.117,2.472-8.1,0.637s-3.604-3.335-3.604-3.335"/>
	</g>
</g>
<g id="Layer_9">
</g>
</svg>
