<?xml version="1.0" encoding="utf-8"?>
<!-- Generator: Adobe Illustrator 16.0.0, SVG Export Plug-In . SVG Version: 6.00 Build 0)  -->
<!DOCTYPE svg PUBLIC "-//W3C//DTD SVG 1.1//EN" "http://www.w3.org/Graphics/SVG/1.1/DTD/svg11.dtd">
<svg version="1.1" xmlns="http://www.w3.org/2000/svg" xmlns:xlink="http://www.w3.org/1999/xlink" x="0px" y="0px" width="354px"
	 height="319px" viewBox="0 0 354 319" enable-background="new 0 0 354 319" xml:space="preserve">
<g id="Layer_1" display="none">
</g>
<g id="Layer_2">
</g>
<g id="frame">
</g>
<g id="folder">
</g>
<g id="Layer_5">
</g>
<g id="Layer_6">
	<g>
		<path fill="#D3D3D3" d="M83.528,264.731c-4.963,0-9-4.037-9-9V62.269c0-4.962,4.037-9,9-9h189.016c4.963,0,9,4.038,9,9v193.463
			c0,4.963-4.037,9-9,9H83.528z"/>
		<g>
			<path fill="#515F70" d="M272.544,54.269c4.411,0,8,3.589,8,8v193.463c0,4.411-3.589,8-8,8H83.528c-4.411,0-8-3.589-8-8V62.269
				c0-4.411,3.589-8,8-8H272.544 M272.544,52.269H83.528c-5.5,0-10,4.5-10,10v193.463c0,5.5,4.5,10,10,10h189.016
				c5.5,0,10-4.5,10-10V62.269C282.544,56.769,278.044,52.269,272.544,52.269L272.544,52.269z"/>
		</g>
	</g>
	<g>
		<path fill="#B2B2B2" d="M269.036,248c0,5.5-4.5,10-10,10h-168c-5.5,0-10-4.5-10-10V76c0-5.5,4.5-10,10-10h168c5.5,0,10,4.5,10,10
			V248z"/>
	</g>
	<g>
		<path fill="#FFFFFF" d="M94.036,254c-4.963,0-9-4.037-9-9V73c0-4.962,4.037-9,9-9h168c4.963,0,9,4.038,9,9v172
			c0,4.963-4.037,9-9,9H94.036z"/>
		<g>
			<path fill="#515F70" d="M262.036,65c4.411,0,8,3.589,8,8v172c0,4.411-3.589,8-8,8h-168c-4.411,0-8-3.589-8-8V73
				c0-4.411,3.589-8,8-8H262.036 M262.036,63h-168c-5.5,0-10,4.5-10,10v172c0,5.5,4.5,10,10,10h168c5.5,0,10-4.5,10-10V73
				C272.036,67.5,267.536,63,262.036,63L262.036,63z"/>
		</g>
	</g>
	
		<line fill="none" stroke="#515F70" stroke-width="2" stroke-linecap="round" stroke-linejoin="round" stroke-miterlimit="10" x1="32.5" y1="273" x2="282.544" y2="273"/>
	
		<line fill="none" stroke="#515F70" stroke-width="2" stroke-linecap="round" stroke-linejoin="round" stroke-miterlimit="10" x1="292" y1="273" x2="331.5" y2="273"/>
	<g>
		<path fill="#1C79C3" d="M83,117c-1.654,0-3-1.346-3-3V97.5c0-1.654,1.346-3,3-3h5c1.654,0,3,1.346,3,3V114c0,1.654-1.346,3-3,3H83
			z"/>
		<path fill="#515F70" d="M88,95.5c1.103,0,2,0.897,2,2V114c0,1.103-0.897,2-2,2h-5c-1.103,0-2-0.897-2-2V97.5c0-1.103,0.897-2,2-2
			H88 M88,93.5h-5c-2.2,0-4,1.8-4,4V114c0,2.2,1.8,4,4,4h5c2.2,0,4-1.8,4-4V97.5C92,95.3,90.2,93.5,88,93.5L88,93.5z"/>
	</g>
	<g>
		<path fill="#50A7E2" d="M92,109.167c0,2.2-1.8,4-4,4h-1.063c-2.2,0-4-1.8-4-4V97.5c0-2.2,1.8-4,4-4H88c2.2,0,4,1.8,4,4V109.167z"
			/>
	</g>
	<g>
		<path fill="#BCBCBC" d="M118.084,271.231c-1.654,0-3-1.346-3-3v-0.523c0-1.654,1.346-3,3-3h16.5c1.654,0,3,1.346,3,3v0.523
			c0,1.654-1.346,3-3,3H118.084z"/>
		<g>
			<path fill="#515F70" d="M134.584,265.708c1.103,0,2,0.897,2,2v0.523c0,1.103-0.897,2-2,2h-16.5c-1.103,0-2-0.897-2-2v-0.523
				c0-1.103,0.897-2,2-2H134.584 M134.584,263.708h-16.5c-2.2,0-4,1.8-4,4v0.523c0,2.2,1.8,4,4,4h16.5c2.2,0,4-1.8,4-4v-0.523
				C138.584,265.508,136.784,263.708,134.584,263.708L134.584,263.708z"/>
		</g>
	</g>
	<g>
		<path fill="#BCBCBC" d="M223.418,271.231c-1.654,0-3-1.346-3-3v-0.523c0-1.654,1.346-3,3-3h16.5c1.654,0,3,1.346,3,3v0.523
			c0,1.654-1.346,3-3,3H223.418z"/>
		<g>
			<path fill="#515F70" d="M239.918,265.708c1.103,0,2,0.897,2,2v0.523c0,1.103-0.897,2-2,2h-16.5c-1.103,0-2-0.897-2-2v-0.523
				c0-1.103,0.897-2,2-2H239.918 M239.918,263.708h-16.5c-2.2,0-4,1.8-4,4v0.523c0,2.2,1.8,4,4,4h16.5c2.2,0,4-1.8,4-4v-0.523
				C243.918,265.508,242.118,263.708,239.918,263.708L239.918,263.708z"/>
		</g>
	</g>
	<g>
		<g>
			<path fill="#B2B2B2" d="M224.644,160.012c0-6.366,3.984-11.8,9.595-13.96c-1.482-6.207-3.927-12.033-7.179-17.318
				c-1.927,0.858-4.002,1.29-6.082,1.29c-3.825,0-7.65-1.46-10.571-4.376c-4.502-4.513-5.529-11.175-3.086-16.665
				c-5.286-3.251-11.111-5.695-17.319-7.185c-2.147,5.616-7.594,9.611-13.965,9.611c-6.37,0-11.816-3.996-13.965-9.611
				c-6.207,1.489-12.032,3.934-17.318,7.185c2.443,5.49,1.421,12.152-3.086,16.665c-2.921,2.916-6.747,4.376-10.572,4.376
				c-2.075,0-4.148-0.432-6.088-1.29c-3.246,5.286-5.689,11.112-7.173,17.318c5.609,2.16,9.601,7.594,9.601,13.96
				c0,6.371-3.984,11.805-9.596,13.965c1.49,6.206,3.934,12.038,7.186,17.318c1.927-0.853,4.002-1.284,6.07-1.284
				c3.825,0,7.651,1.461,10.572,4.381c4.501,4.497,5.529,11.146,3.098,16.638c5.279,3.246,11.111,5.695,17.318,7.173
				c2.159-5.599,7.593-9.571,13.953-9.571c6.361,0,11.794,3.973,13.954,9.571c6.206-1.478,12.032-3.927,17.324-7.173
				c-2.433-5.491-1.404-12.141,3.092-16.638c2.921-2.92,6.746-4.381,10.571-4.381c2.069,0,4.139,0.432,6.071,1.284
				c3.251-5.28,5.694-11.112,7.185-17.318C228.622,171.817,224.644,166.383,224.644,160.012z M176.315,177.92
				c-9.947,0-17.955-8.047-17.955-17.948c0-9.896,8.008-17.944,17.955-17.944c9.934,0,17.943,8.048,17.943,17.944
				C194.259,169.873,186.249,177.92,176.315,177.92z"/>
		</g>
	</g>
	<g>
		<g>
			<path fill="#D3D3D3" d="M163.491,216.027c-5.443-1.38-10.642-3.533-15.478-6.411c2.192-5.812,0.781-12.515-3.64-16.932
				c-3.015-3.014-7.021-4.674-11.279-4.674c-1.917,0-3.855,0.356-5.658,1.035c-2.868-4.813-5.025-10.014-6.421-15.478
				c5.669-2.557,9.419-8.298,9.419-14.557c0-6.254-3.753-11.993-9.425-14.552c1.386-5.447,3.538-10.645,6.41-15.476
				c1.819,0.69,3.725,1.04,5.675,1.04c4.257,0,8.263-1.658,11.278-4.668c4.428-4.434,5.834-11.147,3.631-16.961
				c4.824-2.872,10.022-5.028,15.474-6.419c2.549,5.678,8.29,9.434,14.559,9.434c6.27,0,12.011-3.756,14.559-9.434
				c5.452,1.391,10.65,3.547,15.475,6.419c-2.201,5.81-0.796,12.523,3.629,16.959c3.018,3.012,7.022,4.67,11.279,4.67
				c1.957,0,3.86-0.349,5.671-1.039c2.875,4.828,5.029,10.026,6.414,15.475c-5.668,2.558-9.419,8.297-9.419,14.552
				c0,6.259,3.748,12,9.413,14.557c-1.395,5.464-3.552,10.663-6.42,15.478c-1.816-0.688-3.716-1.035-5.659-1.035
				c-4.258,0-8.264,1.66-11.278,4.674c-4.418,4.418-5.826,11.121-3.635,16.931c-4.85,2.881-10.051,5.034-15.482,6.412
				c-2.557-5.655-8.294-9.396-14.546-9.396C171.783,206.631,166.047,210.372,163.491,216.027z M178.315,140.028
				c-10.452,0-18.955,8.498-18.955,18.944c0,10.448,8.503,18.948,18.955,18.948c10.445,0,18.943-8.5,18.943-18.948
				C197.259,148.526,188.761,140.028,178.315,140.028z"/>
		</g>
		<g>
			<path fill="#515F70" d="M162.934,103.152c2.867,5.602,8.729,9.257,15.103,9.257c6.375,0,12.237-3.655,15.103-9.257
				c4.809,1.299,9.408,3.208,13.716,5.689c-1.925,5.981-0.362,12.709,4.139,17.222c3.205,3.199,7.461,4.96,11.984,4.96
				c1.793,0,3.543-0.276,5.225-0.821c2.483,4.309,4.391,8.909,5.685,13.715c-5.594,2.874-9.243,8.733-9.243,15.095
				c0,6.365,3.647,12.226,9.236,15.099c-1.302,4.818-3.21,9.419-5.69,13.719c-1.684-0.545-3.431-0.819-5.212-0.819
				c-4.525,0-8.781,1.764-11.985,4.967c-4.492,4.493-6.057,11.209-4.143,17.189c-4.328,2.49-8.933,4.396-13.726,5.685
				c-2.873-5.58-8.729-9.221-15.088-9.221s-12.215,3.641-15.088,9.221c-4.802-1.289-9.403-3.195-13.72-5.683
				c1.914-5.982,0.349-12.7-4.147-17.191c-3.204-3.203-7.461-4.967-11.986-4.967c-1.756,0-3.528,0.281-5.211,0.821
				c-2.479-4.3-4.389-8.902-5.691-13.721c5.593-2.874,9.242-8.735,9.242-15.099c0-6.36-3.651-12.22-9.249-15.095
				c1.295-4.804,3.2-9.405,5.681-13.717c1.688,0.547,3.44,0.823,5.229,0.823c4.524,0,8.78-1.762,11.987-4.963
				c4.501-4.507,6.063-11.235,4.137-17.219C153.525,106.36,158.126,104.451,162.934,103.152 M178.315,178.92
				c10.997,0,19.943-8.949,19.943-19.948c0-10.997-8.946-19.944-19.943-19.944c-11.003,0-19.955,8.947-19.955,19.944
				C158.36,169.971,167.313,178.92,178.315,178.92 M192.001,100.798c-2.147,5.616-7.594,9.611-13.965,9.611
				c-6.37,0-11.816-3.996-13.965-9.611c-6.207,1.489-12.032,3.934-17.318,7.185c2.443,5.49,1.421,12.152-3.086,16.665
				c-2.921,2.916-6.747,4.376-10.572,4.376c-2.075,0-4.148-0.432-6.088-1.29c-3.246,5.286-5.689,11.112-7.173,17.318
				c5.609,2.16,9.601,7.594,9.601,13.96c0,6.371-3.984,11.805-9.596,13.965c1.49,6.206,3.934,12.038,7.186,17.318
				c1.927-0.853,4.002-1.284,6.07-1.284c3.825,0,7.651,1.461,10.572,4.381c4.501,4.497,5.529,11.146,3.098,16.638
				c5.279,3.246,11.111,5.695,17.318,7.173c2.159-5.599,7.593-9.571,13.953-9.571c6.361,0,11.794,3.973,13.954,9.571
				c6.206-1.478,12.032-3.927,17.324-7.173c-2.433-5.491-1.404-12.141,3.092-16.638c2.921-2.92,6.746-4.381,10.571-4.381
				c2.069,0,4.139,0.432,6.071,1.284c3.251-5.28,5.694-11.112,7.185-17.318c-5.611-2.16-9.59-7.594-9.59-13.965
				c0-6.366,3.984-11.8,9.595-13.96c-1.482-6.207-3.927-12.033-7.179-17.318c-1.927,0.858-4.002,1.29-6.082,1.29
				c-3.825,0-7.65-1.46-10.571-4.376c-4.502-4.513-5.529-11.175-3.086-16.665C204.034,104.731,198.209,102.287,192.001,100.798
				L192.001,100.798z M178.315,176.92c-9.947,0-17.955-8.047-17.955-17.948c0-9.896,8.008-17.944,17.955-17.944
				c9.934,0,17.943,8.048,17.943,17.944C196.259,168.873,188.249,176.92,178.315,176.92L178.315,176.92z"/>
		</g>
	</g>
	<g>
		<path fill="#515F70" d="M88,95.5c1.103,0,2,0.897,2,2V114c0,1.103-0.897,2-2,2h-5c-1.103,0-2-0.897-2-2V97.5c0-1.103,0.897-2,2-2
			H88 M88,93.5h-5c-2.2,0-4,1.8-4,4V114c0,2.2,1.8,4,4,4h5c2.2,0,4-1.8,4-4V97.5C92,95.3,90.2,93.5,88,93.5L88,93.5z"/>
	</g>
	<g>
		<path fill="#1C79C3" d="M83,229.75c-1.654,0-3-1.346-3-3v-16.5c0-1.654,1.346-3,3-3h5c1.654,0,3,1.346,3,3v16.5
			c0,1.654-1.346,3-3,3H83z"/>
		<path fill="#515F70" d="M88,208.25c1.103,0,2,0.896,2,2v16.5c0,1.104-0.897,2-2,2h-5c-1.103,0-2-0.896-2-2v-16.5
			c0-1.104,0.897-2,2-2H88 M88,206.25h-5c-2.2,0-4,1.8-4,4v16.5c0,2.2,1.8,4,4,4h5c2.2,0,4-1.8,4-4v-16.5
			C92,208.05,90.2,206.25,88,206.25L88,206.25z"/>
	</g>
	<g>
		<path fill="#50A7E2" d="M92,221.916c0,2.201-1.8,4-4,4h-1.063c-2.2,0-4-1.799-4-4V210.25c0-2.2,1.8-4,4-4H88c2.2,0,4,1.8,4,4
			V221.916z"/>
	</g>
	<g>
		<path fill="#515F70" d="M88,208.25c1.103,0,2,0.896,2,2v16.5c0,1.104-0.897,2-2,2h-5c-1.103,0-2-0.896-2-2v-16.5
			c0-1.104,0.897-2,2-2H88 M88,206.25h-5c-2.2,0-4,1.8-4,4v16.5c0,2.2,1.8,4,4,4h5c2.2,0,4-1.8,4-4v-16.5
			C92,208.05,90.2,206.25,88,206.25L88,206.25z"/>
	</g>
	<path fill="#B2B2B2" d="M174.369,142.833c11.506,0,20.834,9.328,20.834,20.834c0,0.484-0.04,0.958-0.072,1.434
		c0.682-1.909,1.072-3.957,1.072-6.101c0-10.033-8.134-18.167-18.167-18.167c-3.662,0-7.064,1.093-9.917,2.957
		C170.093,143.17,172.191,142.833,174.369,142.833z"/>
</g>
</svg>
