<?xml version="1.0" encoding="utf-8"?>
<!-- Generator: Adobe Illustrator 16.0.0, SVG Export Plug-In . SVG Version: 6.00 Build 0)  -->
<!DOCTYPE svg PUBLIC "-//W3C//DTD SVG 1.1//EN" "http://www.w3.org/Graphics/SVG/1.1/DTD/svg11.dtd">
<svg version="1.1" xmlns="http://www.w3.org/2000/svg" xmlns:xlink="http://www.w3.org/1999/xlink" x="0px" y="0px" width="456.1px"
	 height="299px" viewBox="0 0 456.1 299" enable-background="new 0 0 456.1 299" xml:space="preserve">
<g id="Layer_1" display="none">
</g>
<g id="Layer_2">
</g>
<g id="frame">
</g>
<g id="folder">
</g>
<g id="Layer_5">
</g>
<g id="Layer_6">
</g>
<g id="Layer_7">
</g>
<g id="Layer_8">
	<g>
		<path fill="#D3D3D3" d="M314.84,91.426c0.211,0.281-2.012,1.755-4.941,3.274l-1.806,0.937c-2.93,1.52-7.437,1.079-10.016-0.98
			l-2.399-1.914c-2.579-2.059-6.713-1.955-9.186,0.23l-7.213,6.374c-2.473,2.185-6.545,2.213-9.048,0.063l-3.448-2.962
			c-2.504-2.15-3.953-4.527-3.223-5.282c0.731-0.754,3.262,0.376,5.622,2.512s4.896,3.955,5.636,4.041s2.047-0.097,2.906-0.406
			s3.635-2.293,6.168-4.409l0.57-0.478c2.533-2.115,5.217-3.962,5.965-4.105s2.177-0.106,3.176,0.08
			c1,0.186,3.461,1.438,5.469,2.781c2.009,1.344,4.611,2.538,5.782,2.655c1.171,0.116,3.811-0.494,5.864-1.356
			C312.773,91.619,314.627,91.144,314.84,91.426z"/>
	</g>
	<g>
		<path fill="#D3D3D3" d="M163.041,108.969l-8.755,7c-2.577,2.061-6.788,2.053-9.358-0.018l-5.156-4.157
			c-2.57-2.071-6.91-2.256-9.646-0.411l-8.551,5.763c-2.736,1.845-7.107,1.698-9.714-0.326l-7.479-5.807
			c-2.606-2.024-3.863-4.608-2.793-5.742c1.071-1.134,3.873-0.169,6.226,2.144l2.045,2.011c2.353,2.313,5.789,4.359,7.635,4.545
			s5.595-1.171,8.331-3.016l2.695-1.817c2.736-1.845,6.507-3.168,8.379-2.942c1.871,0.227,5.688,1.85,8.481,3.607l1.891,1.189
			c2.794,1.757,7.087,1.933,9.54,0.39s5.114-3.309,5.913-3.925C162.724,107.458,162.724,107.458,163.041,108.969z"/>
	</g>
	<path display="none" fill="#D3D3D3" d="M175.815,46.563c0,0,6.815,0.406,5.097,8.906l1.938,0.865l-0.539-2.083l1.205-3.665
		l-1.205-3.168l-2.378-1.792l-3.271,0.25l-0.919-2.354l-1.228-3.756c0,0-5.698-8.671-16.073-3.703c0,0,12.537-1.992,16.531,9.75"/>
	<path display="none" fill="#1C79C3" d="M106.35,107.081L72.6,141.483c0,0,8.75,20.767,33.75,2.517c0,0,21.17-19,36.46,1.75
		c0,0,16.952,22.438,35.29-2c0,0,3.75-4.5,6-17l-31.879-28.604c0,0,7.254,8.936,0.963,14.604c0,0-6.334,5.5-16.334-7.5
		c0,0-7.375-15.221-15.125-0.75C121.725,104.5,112.475,126.287,106.35,107.081z"/>
	<path display="none" fill="#1C79C3" d="M264.021,96.931l-33.75,34.402c0,0,8.75,20.767,33.75,2.517c0,0,21.17-19,36.46,1.75
		c0,0,16.952,22.438,35.29-2c0,0,6.912-3.433,9.162-15.933L319.475,96.11c0,0,8.625,13.453-2.313,16.578
		c0,0-8.188,2.688-15.063-8.659c0,0-10.326-17.195-21-2.695C281.1,101.333,270.146,116.137,264.021,96.931z"/>
	<g>
		<path fill="none" stroke="#99A1AF" stroke-width="2" stroke-linecap="round" stroke-miterlimit="10" d="M66.434,142.314
			l58.491-60.358c2.297-2.37,6.196-2.518,8.665-0.328l139.511,123.69"/>
	</g>
	<g>
		<path fill="none" stroke="#99A1AF" stroke-width="2" stroke-linecap="round" stroke-miterlimit="10" d="M224.766,131.2
			l58.491-60.358c2.297-2.37,6.196-2.518,8.665-0.328l139.511,123.691"/>
	</g>
	<g>
		<path fill="#FFFFFF" d="M185.1,186.333c-1.654,0-3-1.346-3-3v-98c0-1.654,1.346-3,3-3h56c1.654,0,3,1.346,3,3v98
			c0,1.654-1.346,3-3,3H185.1z"/>
		<g>
			<path fill="#515F70" d="M241.1,83.333c1.103,0,2,0.897,2,2v98c0,1.103-0.897,2-2,2h-56c-1.103,0-2-0.897-2-2v-98
				c0-1.103,0.897-2,2-2H241.1 M241.1,81.333h-56c-2.2,0-4,1.8-4,4v98c0,2.2,1.8,4,4,4h56c2.2,0,4-1.8,4-4v-98
				C245.1,83.133,243.3,81.333,241.1,81.333L241.1,81.333z"/>
		</g>
	</g>
	
		<line fill="none" stroke="#515F70" stroke-width="2" stroke-linecap="round" stroke-linejoin="round" stroke-miterlimit="10" x1="206.433" y1="86.833" x2="216.35" y2="86.833"/>
	<g>
		<path fill="#D3D3D3" d="M236.641,118.475c0.057,0.074-0.637,0.518-1.54,0.986c-0.903,0.469-2.341,0.294-3.194-0.387
			c-0.854-0.682-2.516-0.39-3.689,0.648c-1.176,1.038-2.881,1.248-3.791,0.467c-0.91-0.782-1.498-1.584-1.305-1.783
			c0.192-0.199,0.859,0.099,1.481,0.662s1.291,1.043,1.486,1.065s0.54-0.026,0.767-0.107c0.228-0.082,0.993-0.633,1.701-1.226
			c0.709-0.592,1.45-1.107,1.647-1.145s0.574-0.028,0.838,0.021s0.913,0.379,1.442,0.733c0.529,0.354,1.216,0.669,1.524,0.7
			s1.005-0.13,1.546-0.357C236.097,118.525,236.586,118.4,236.641,118.475z"/>
	</g>
	<circle fill="#515F70" cx="221.85" cy="86.833" r="1.75"/>
	<g>
		<path fill="#1C79C3" d="M211.08,169.524c-0.501,0-0.908-0.408-0.908-0.909v-4.865c0-0.501,0.407-0.909,0.908-0.909h2.022
			l0.768-1.54l2.617,0.003l0.766,1.537h2.022c0.501,0,0.908,0.408,0.908,0.909v4.865c0,0.501-0.407,0.909-0.908,0.909H211.08z"/>
		<path fill="#515F6E" d="M216.178,161.805l0.49,0.983l0.275,0.554h0.619h1.713c0.225,0,0.408,0.183,0.408,0.409v4.865
			c0,0.226-0.184,0.409-0.408,0.409h-8.195c-0.225,0-0.408-0.183-0.408-0.409v-4.865c0-0.226,0.184-0.409,0.408-0.409h1.713h0.619
			l0.275-0.554l0.49-0.983H216.178 M213.629,160.804c-0.004,0-0.008,0-0.012,0.001c-0.04,0.007-0.074,0.032-0.092,0.068
			l-0.732,1.468h-1.713c-0.778,0-1.408,0.63-1.408,1.409v4.865c0,0.778,0.63,1.409,1.408,1.409h8.195
			c0.777,0,1.408-0.63,1.408-1.409v-4.865c0-0.778-0.631-1.409-1.408-1.409h-1.713l-0.732-1.468
			c-0.023-0.042-0.066-0.068-0.113-0.068c-0.001,0-0.002,0-0.003,0h-3.072C213.638,160.804,213.634,160.804,213.629,160.804
			L213.629,160.804z"/>
	</g>
	<circle fill="#FFFFFF" stroke="#515F6E" stroke-miterlimit="10" cx="215.178" cy="166.242" r="1.861"/>
	<circle fill="none" stroke="#99A1AF" stroke-linecap="round" stroke-miterlimit="10" cx="215.178" cy="165.417" r="8.338"/>
	<g>
		<path fill="none" stroke="#99A1AF" stroke-linecap="round" stroke-miterlimit="10" d="M213.682,127.916l12.34-12.626
			c2.307-2.36,6.149-2.558,8.539-0.439c2.389,2.118,4.344,3.852,4.344,3.852"/>
	</g>
	<circle fill="#50A7E2" cx="239.832" cy="38.037" r="15.213"/>
	<circle fill="#1C79C3" stroke="#515F6E" stroke-miterlimit="10" cx="221.85" cy="104.029" r="3.71"/>
	<path fill="none" stroke="#99A1AF" stroke-width="2" stroke-linecap="round" stroke-linejoin="round" stroke-miterlimit="10" d="
		M310.776,61.333c0,0,4.695-1.885,8.692,2.288c0,0,2.287-4.818,6.993-3.618"/>
	<path fill="none" stroke="#99A1AF" stroke-width="2" stroke-linecap="round" stroke-linejoin="round" stroke-miterlimit="10" d="
		M279.124,46.425c0,0,6.079-2.44,11.255,2.962c0,0,2.961-6.238,9.054-4.685"/>
	<path fill="none" stroke="#99A1AF" stroke-width="2" stroke-linecap="round" stroke-miterlimit="10" d="M142.81,55.712
		c-0.264-0.835-0.406-1.724-0.406-2.646c0-4.854,3.936-8.789,8.79-8.789c0.607,0,1.199,0.061,1.771,0.178"/>
	<path fill="none" stroke="#99A1AF" stroke-width="2" stroke-linecap="round" stroke-miterlimit="10" d="M175.815,45.539
		c0.327-0.052,0.663-0.079,1.006-0.079c3.505,0,6.347,2.841,6.347,6.346c0,1.473-0.502,2.829-1.344,3.905"/>
	<path fill="none" stroke="#99A1AF" stroke-width="2" stroke-linecap="round" stroke-miterlimit="10" d="M153.009,44.459
		c0.506-5.821,5.393-10.388,11.346-10.388c6.29,0,11.39,5.099,11.39,11.389"/>
	
		<line fill="none" stroke="#99A1AF" stroke-width="2" stroke-linecap="round" stroke-miterlimit="10" x1="120.626" y1="55.71" x2="142.81" y2="55.71"/>
	
		<line fill="none" stroke="#99A1AF" stroke-width="2" stroke-linecap="round" stroke-miterlimit="10" x1="182.312" y1="55.71" x2="190.82" y2="55.71"/>
	<path fill="none" stroke="#99A1AF" stroke-linecap="round" stroke-miterlimit="10" d="M202.751,111.104
		c-0.049-0.155-0.075-0.32-0.075-0.492c0-0.903,0.73-1.634,1.633-1.634c0.113,0,0.224,0.011,0.33,0.033"/>
	<path fill="none" stroke="#99A1AF" stroke-linecap="round" stroke-miterlimit="10" d="M208.887,109.213
		c0.061-0.01,0.123-0.015,0.186-0.015c0.652,0,1.181,0.528,1.181,1.18c0,0.273-0.093,0.525-0.249,0.726"/>
	<path fill="none" stroke="#99A1AF" stroke-linecap="round" stroke-linejoin="round" stroke-miterlimit="10" d="M231.943,107.192
		c0,0,2.241-0.9,4.148,1.092c0,0,1.092-2.299,3.337-1.727"/>
	<path fill="none" stroke="#99A1AF" stroke-linecap="round" stroke-miterlimit="10" d="M204.646,109.012
		c0.094-1.082,1.003-1.931,2.109-1.931c1.17,0,2.117,0.948,2.117,2.117"/>
	
		<line fill="none" stroke="#99A1AF" stroke-linecap="round" stroke-miterlimit="10" x1="198.627" y1="111.104" x2="202.751" y2="111.104"/>
	
		<line fill="none" stroke="#99A1AF" stroke-linecap="round" stroke-miterlimit="10" x1="210.094" y1="111.104" x2="211.676" y2="111.104"/>
	<g>
		<path fill="#D3D3D3" d="M209.661,124.848L209.661,124.848c-2.097,1.676-4.737,2.302-5.868,1.391s-3.236-0.861-4.679,0.111
			s-3.705,0.928-5.027-0.099c-1.321-1.027-2.154-2.13-1.852-2.452c0.305-0.321,1.229,0.081,2.056,0.894
			c0.827,0.813,1.931,1.521,2.454,1.573c0.523,0.053,1.759-0.448,2.744-1.112c0.986-0.665,2.227-1.156,2.758-1.092
			s1.733,0.6,2.673,1.191c0.939,0.591,2.277,0.716,2.973,0.279c0.695-0.438,1.45-0.938,1.678-1.113
			C209.57,124.42,209.57,124.42,209.661,124.848z"/>
	</g>
	<g>
		<path fill="none" stroke="#99A1AF" stroke-linecap="round" stroke-miterlimit="10" d="M187.933,128.088l7.813-8.063
			c2.297-2.37,6.196-2.518,8.665-0.329l17.959,15.922"/>
	</g>
	<g>
		<path fill="none" stroke="#99A1AF" stroke-linecap="round" stroke-miterlimit="10" d="M236.765,118.163
			c0,0-0.664,0.279-1.476,0.62c-0.813,0.341-2.188,0.053-3.056-0.641s-2.557-0.396-3.752,0.66s-2.844,1.299-3.663,0.541
			c-0.82-0.759-1.491-1.38-1.491-1.38"/>
	</g>
	<g>
		<path fill="#515F70" d="M235.85,92.029c1.103,0,2,0.897,2,2v80.609c0,1.103-0.897,2-2,2h-45.5c-1.103,0-2-0.897-2-2V94.029
			c0-1.103,0.897-2,2-2H235.85 M235.85,90.029h-45.5c-2.2,0-4,1.8-4,4v80.609c0,2.2,1.8,4,4,4h45.5c2.2,0,4-1.8,4-4V94.029
			C239.85,91.829,238.05,90.029,235.85,90.029L235.85,90.029z"/>
	</g>
	
		<line fill="none" stroke="#515F70" stroke-width="2" stroke-linecap="round" stroke-linejoin="round" stroke-miterlimit="10" x1="441.1" y1="232" x2="148.101" y2="232"/>
	
		<line fill="none" stroke="#515F70" stroke-width="2" stroke-linecap="round" stroke-linejoin="round" stroke-miterlimit="10" x1="135.6" y1="232" x2="87.6" y2="232"/>
	<g>
		<path fill="#D3D3D3" d="M236.1,224c-1.654,0-3-1.346-3-3V120.5c0-1.654,1.346-3,3-3h164.833c1.654,0,3,1.346,3,3V221
			c0,1.654-1.346,3-3,3H236.1z"/>
		<g>
			<path fill="#515F70" d="M400.933,118.5c1.103,0,2,0.897,2,2V221c0,1.103-0.897,2-2,2H236.1c-1.103,0-2-0.897-2-2V120.5
				c0-1.103,0.897-2,2-2H400.933 M400.933,116.5H236.1c-2.2,0-4,1.8-4,4V221c0,2.2,1.8,4,4,4h164.833c2.2,0,4-1.8,4-4V120.5
				C404.933,118.3,403.133,116.5,400.933,116.5L400.933,116.5z"/>
		</g>
	</g>
	<g>
		<path fill="#D3D3D3" d="M226.933,232c-1.809,0-3.929-1.408-4.63-3.074l-1.104-2.627c-0.279-0.662-0.282-1.252-0.01-1.663
			c0.272-0.41,0.818-0.636,1.536-0.636H415.1c0.694,0,1.223,0.21,1.449,0.577c0.227,0.366,0.178,0.933-0.133,1.554l-1.422,2.844
			c-0.82,1.64-3.062,3.025-4.895,3.025H226.933z"/>
		<g>
			<path fill="#515F70" d="M415.1,225c0.336,0,0.523,0.068,0.591,0.107c0.005,0.078-0.019,0.275-0.169,0.576l-1.422,2.844
				c-0.646,1.294-2.554,2.473-4,2.473H226.933c-1.398,0-3.166-1.174-3.708-2.462l-1.105-2.628c-0.164-0.39-0.148-0.645-0.098-0.721
				s0.279-0.189,0.703-0.189H415.1 M415.1,223H222.725c-2.2,0-3.302,1.659-2.448,3.687l1.104,2.627
				c0.854,2.027,3.352,3.687,5.552,3.687H410.1c2.2,0,4.805-1.61,5.789-3.578l1.422-2.844C418.295,224.61,417.3,223,415.1,223
				L415.1,223z"/>
		</g>
	</g>
	<g>
		<path fill="#BCBCBC" d="M414.567,230.5c1.347-1.375,0.648-2.5-1.552-2.5H224.809c-2.2,0-3.073,1.125-1.939,2.5
			c1.133,1.375,3.859,2.5,6.06,2.5h179.19C410.319,233,413.221,231.875,414.567,230.5z"/>
	</g>
	<g>
		<path fill="#FFFFFF" d="M241.933,218.783c-1.654,0-3-1.346-3-3v-84.666c0-1.654,1.346-3,3-3H395.1c1.654,0,3,1.346,3,3v84.666
			c0,1.654-1.346,3-3,3H241.933z"/>
		<path fill="#515F70" d="M395.1,129.118c1.104,0,2,0.897,2,2v84.666c0,1.103-0.896,2-2,2H241.933c-1.103,0-2-0.897-2-2v-84.666
			c0-1.103,0.897-2,2-2H395.1 M395.1,127.118H241.933c-2.2,0-4,1.8-4,4v84.666c0,2.2,1.8,4,4,4H395.1c2.2,0,4-1.8,4-4v-84.666
			C399.1,128.917,397.3,127.118,395.1,127.118L395.1,127.118z"/>
	</g>
	<circle fill="#515F70" cx="318.516" cy="122.375" r="1.75"/>
	<circle fill="#1C79C3" stroke="#515F6E" stroke-miterlimit="10" cx="324.928" cy="148.874" r="7.204"/>
	<path fill="none" stroke="#99A1AF" stroke-linecap="round" stroke-linejoin="round" stroke-miterlimit="10" d="M364.409,160.03
		c0,0,2.619-1.051,4.848,1.276c0,0,1.276-2.687,3.9-2.018"/>
	<path fill="none" stroke="#99A1AF" stroke-linecap="round" stroke-linejoin="round" stroke-miterlimit="10" d="M348.149,152.827
		c0,0,3.354-1.346,6.206,1.634c0,0,1.635-3.44,4.994-2.584"/>
	<path fill="none" stroke="#99A1AF" stroke-linecap="round" stroke-miterlimit="10" d="M285.961,161.754
		c-0.116-0.368-0.18-0.76-0.18-1.167c0-2.139,1.734-3.873,3.874-3.873c0.268,0,0.527,0.027,0.78,0.079"/>
	<path fill="none" stroke="#99A1AF" stroke-linecap="round" stroke-miterlimit="10" d="M300.506,157.271
		c0.145-0.022,0.292-0.035,0.443-0.035c1.544,0,2.797,1.252,2.797,2.797c0,0.649-0.221,1.247-0.592,1.721"/>
	<path fill="none" stroke="#99A1AF" stroke-linecap="round" stroke-miterlimit="10" d="M290.455,156.795
		c0.224-2.565,2.377-4.578,5-4.578c2.771,0,5.019,2.247,5.019,5.019"/>
	
		<line fill="none" stroke="#99A1AF" stroke-linecap="round" stroke-miterlimit="10" x1="276.185" y1="161.753" x2="285.961" y2="161.753"/>
	
		<line fill="none" stroke="#99A1AF" stroke-linecap="round" stroke-miterlimit="10" x1="303.369" y1="161.753" x2="307.118" y2="161.753"/>
	<rect x="183.1" y="130.369" fill="#FFFFFF" width="3.25" height="10.594"/>
	<rect x="239.85" y="101.784" fill="#FFFFFF" width="3.204" height="10.594"/>
	<g>
		<g>
			<path fill="#515F70" d="M415.1,225c0.336,0,0.523,0.068,0.591,0.107c0.005,0.078-0.019,0.275-0.169,0.576l-1.422,2.844
				c-0.646,1.294-2.554,2.473-4,2.473H226.933c-1.398,0-3.166-1.174-3.708-2.462l-1.105-2.628c-0.164-0.39-0.148-0.645-0.098-0.721
				s0.279-0.189,0.703-0.189H415.1 M415.1,223H222.725c-2.2,0-3.302,1.659-2.448,3.687l1.104,2.627
				c0.854,2.027,3.352,3.687,5.552,3.687H410.1c2.2,0,4.805-1.61,5.789-3.578l1.422-2.844C418.295,224.61,417.3,223,415.1,223
				L415.1,223z"/>
		</g>
	</g>
	<g>
		<path fill="none" stroke="#99A1AF" stroke-width="2" stroke-linecap="round" stroke-miterlimit="10" d="M103.535,104.029
			l10.442,8.645c2.542,2.104,6.86,2.317,9.597,0.472l8.551-5.763c2.736-1.845,7.076-1.66,9.646,0.411l5.156,4.157
			c2.57,2.071,6.887,2.221,9.594,0.333l6.52-4.545"/>
	</g>
	<g>
		<path fill="none" stroke="#99A1AF" stroke-linecap="round" stroke-miterlimit="10" d="M192.427,123.428
			c0,0,0.939,0.778,2.088,1.728s3.241,0.95,4.651,0s3.468-1,4.572-0.109c1.105,0.891,2.723,1.122,3.595,0.514
			c0.872-0.608,1.585-1.105,1.585-1.105"/>
	</g>
	<g>
		<path fill="none" stroke="#99A1AF" stroke-width="2" stroke-linecap="round" stroke-miterlimit="10" d="M314.777,90.778
			c0,0-2.478,1.04-5.506,2.311c-3.027,1.271-7.615,0.626-10.194-1.432l-2.399-1.914c-2.579-2.059-6.713-1.955-9.186,0.23
			l-7.213,6.374c-2.473,2.185-6.478,2.139-8.899-0.103l-6.716-6.215"/>
	</g>
	
		<line fill="none" stroke="#99A1AF" stroke-width="2" stroke-linecap="round" stroke-miterlimit="10" x1="48.6" y1="143.25" x2="110.85" y2="143.25"/>
	
		<line fill="none" stroke="#99A1AF" stroke-linecap="round" stroke-miterlimit="10" x1="245.85" y1="194.205" x2="268.748" y2="194.205"/>
	<g>
		<path fill="#D3D3D3" d="M296.452,183.696l-1.793,1.412c-2.592,2.042-6.122,2.431-7.845,0.865c-1.722-1.566-5.296-1.508-7.942,0.13
			c-2.646,1.639-6.638,1.54-8.869-0.219s-3.633-3.642-3.113-4.184c0.52-0.542,2.084,0.152,3.477,1.542
			c1.393,1.39,3.259,2.605,4.146,2.702s2.933-0.471,4.544-1.259c1.612-0.789,3.781-1.388,4.82-1.33
			c1.039,0.057,3.133,0.714,4.65,1.46c1.52,0.746,3.732,0.755,4.918,0.021c1.187-0.734,2.473-1.575,2.859-1.868
			C296.305,182.968,296.305,182.968,296.452,183.696z"/>
	</g>
	<g>
		<path fill="none" stroke="#99A1AF" stroke-linecap="round" stroke-miterlimit="10" d="M254.943,194.205l20.723-21.3
			c2.302-2.365,6.201-2.505,8.665-0.31l33.394,29.739"/>
	</g>
	<g>
		<path fill="none" stroke="#99A1AF" stroke-linecap="round" stroke-miterlimit="10" d="M268.16,181.664c0,0,1.575,1.304,3.5,2.898
			s5.435,1.594,7.799,0c2.365-1.594,5.816-1.676,7.67-0.182c1.853,1.493,4.565,1.881,6.027,0.862s2.658-1.854,2.658-1.854"/>
	</g>
	<g>
		<path fill="#D3D3D3" d="M361.568,176.62c0.126,0.168-1.443,1.173-3.487,2.233s-5.298,0.666-7.229-0.876
			c-1.933-1.542-5.537-1.017-8.01,1.168l-0.678,0.598c-2.473,2.185-6.182,2.525-8.24,0.757s-3.387-3.584-2.951-4.035
			c0.438-0.45,1.946,0.224,3.354,1.499c1.408,1.275,2.921,2.36,3.362,2.411c0.441,0.051,1.221-0.058,1.734-0.243
			c0.512-0.185,2.271-1.288,3.908-2.452c1.637-1.165,3.351-2.173,3.809-2.242c0.459-0.069,1.274-0.031,1.813,0.083
			c0.539,0.115,1.971,0.704,3.184,1.31c1.211,0.605,2.775,1.158,3.474,1.228c0.698,0.069,2.273-0.295,3.499-0.809
			S361.441,176.452,361.568,176.62z"/>
	</g>
	<g>
		<path fill="none" stroke="#99A1AF" stroke-linecap="round" stroke-miterlimit="10" d="M311.463,196.632l29.473-30.124
			c2.307-2.358,6.232-2.517,8.723-0.352L387.433,199"/>
	</g>
	<g>
		<path fill="none" stroke="#99A1AF" stroke-linecap="round" stroke-miterlimit="10" d="M360.917,176.449
			c0,0-1.431,0.601-3.181,1.334c-1.748,0.734-4.711,0.113-6.582-1.38s-5.425-0.927-7.897,1.258l-0.368,0.325
			c-2.473,2.185-5.941,2.636-7.707,1.001c-1.767-1.635-3.212-2.972-3.212-2.972"/>
	</g>
</g>
<g id="Layer_9">
</g>
</svg>
