<?xml version="1.0" encoding="utf-8"?>
<!-- Generator: Adobe Illustrator 16.0.0, SVG Export Plug-In . SVG Version: 6.00 Build 0)  -->
<!DOCTYPE svg PUBLIC "-//W3C//DTD SVG 1.1//EN" "http://www.w3.org/Graphics/SVG/1.1/DTD/svg11.dtd">
<svg version="1.1" xmlns="http://www.w3.org/2000/svg" xmlns:xlink="http://www.w3.org/1999/xlink" x="0px" y="0px" width="24px"
	 height="24px" viewBox="0 0 24 24" enable-background="new 0 0 24 24" xml:space="preserve">
<g id="Layer_1">
	<g>
		<g>
			<path fill="#ffffff" d="M17.5,9.281v10.5c0,0.276-0.224,0.5-0.5,0.5H7c-0.276,0-0.5-0.224-0.5-0.5v-10.5H17.5 M19,7.781H5v12
				c0,1.103,0.897,2,2,2h10c1.103,0,2-0.897,2-2V7.781L19,7.781z"/>
		</g>
		<polygon fill="#ffffff" points="16,4.778 16.016,2 8.016,2 8.016,4.781 3,4.781 3,6.281 21,6.281 21.014,4.778 		"/>
		<g>
			<path fill="#ffffff" d="M9.25,17.823c0,0.413,0.337,0.75,0.75,0.75l0,0c0.413,0,0.75-0.337,0.75-0.75v-6.084
				c0-0.413-0.337-0.75-0.75-0.75l0,0c-0.413,0-0.75,0.337-0.75,0.75V17.823z"/>
		</g>
		<g>
			<path fill="#ffffff" d="M13.25,17.823c0,0.413,0.337,0.75,0.75,0.75l0,0c0.413,0,0.75-0.337,0.75-0.75v-6.084
				c0-0.413-0.337-0.75-0.75-0.75l0,0c-0.413,0-0.75,0.337-0.75,0.75V17.823z"/>
		</g>
	</g>
	
		<line fill="none" stroke="#ffffff" stroke-width="1.5" stroke-linecap="round" stroke-miterlimit="10" x1="3" y1="5.531" x2="21.014" y2="5.531"/>
	<rect x="9.523" y="3.273" fill="#FFFFFF" width="4.984" height="1.5"/>
</g>
<g id="Layer_2">
</g>
</svg>
